<mxfile host="app.diagrams.net" modified="2021-12-23T09:32:36.818Z" agent="5.0 (Macintosh; Intel Mac OS X 10_15_7) AppleWebKit/537.36 (KHTML, like Gecko) Chrome/96.0.4664.110 Safari/537.36" etag="WKdI8xsaLMfVLtavn2xr" version="15.9.6" type="github">
  <diagram id="-RW5tX5T3gzrLZhKstwX" name="Page-1">
    <mxGraphModel dx="1940" dy="647" grid="1" gridSize="10" guides="1" tooltips="1" connect="1" arrows="1" fold="1" page="1" pageScale="1" pageWidth="827" pageHeight="1169" math="0" shadow="0">
      <root>
        <mxCell id="0" />
        <mxCell id="1" parent="0" />
        <mxCell id="aPNfkUZCIj8OY--DICkq-174" value="" style="shape=table;startSize=0;container=1;collapsible=0;childLayout=tableLayout;fontSize=15;" vertex="1" parent="1">
          <mxGeometry x="-10" y="100" width="280" height="230" as="geometry" />
        </mxCell>
        <mxCell id="aPNfkUZCIj8OY--DICkq-175" value="" style="shape=partialRectangle;collapsible=0;dropTarget=0;pointerEvents=0;fillColor=none;top=0;left=0;bottom=0;right=0;points=[[0,0.5],[1,0.5]];portConstraint=eastwest;fontSize=15;" vertex="1" parent="aPNfkUZCIj8OY--DICkq-174">
          <mxGeometry width="280" height="21" as="geometry" />
        </mxCell>
        <mxCell id="aPNfkUZCIj8OY--DICkq-176" value="" style="shape=partialRectangle;html=1;whiteSpace=wrap;connectable=0;overflow=hidden;fillColor=none;top=0;left=0;bottom=0;right=0;pointerEvents=1;fontSize=15;" vertex="1" parent="aPNfkUZCIj8OY--DICkq-175">
          <mxGeometry width="20" height="21" as="geometry">
            <mxRectangle width="20" height="21" as="alternateBounds" />
          </mxGeometry>
        </mxCell>
        <mxCell id="aPNfkUZCIj8OY--DICkq-177" value="" style="shape=partialRectangle;html=1;whiteSpace=wrap;connectable=0;overflow=hidden;fillColor=none;top=0;left=0;bottom=0;right=0;pointerEvents=1;fontSize=15;" vertex="1" parent="aPNfkUZCIj8OY--DICkq-175">
          <mxGeometry x="20" width="20" height="21" as="geometry">
            <mxRectangle width="20" height="21" as="alternateBounds" />
          </mxGeometry>
        </mxCell>
        <mxCell id="aPNfkUZCIj8OY--DICkq-178" value="" style="shape=partialRectangle;html=1;whiteSpace=wrap;connectable=0;overflow=hidden;fillColor=none;top=0;left=0;bottom=0;right=0;pointerEvents=1;fontSize=15;" vertex="1" parent="aPNfkUZCIj8OY--DICkq-175">
          <mxGeometry x="40" width="19" height="21" as="geometry">
            <mxRectangle width="19" height="21" as="alternateBounds" />
          </mxGeometry>
        </mxCell>
        <mxCell id="aPNfkUZCIj8OY--DICkq-179" value="" style="shape=partialRectangle;html=1;whiteSpace=wrap;connectable=0;overflow=hidden;fillColor=none;top=0;left=0;bottom=0;right=0;pointerEvents=1;fontSize=15;" vertex="1" parent="aPNfkUZCIj8OY--DICkq-175">
          <mxGeometry x="59" width="22" height="21" as="geometry">
            <mxRectangle width="22" height="21" as="alternateBounds" />
          </mxGeometry>
        </mxCell>
        <mxCell id="aPNfkUZCIj8OY--DICkq-180" value="" style="shape=partialRectangle;html=1;whiteSpace=wrap;connectable=0;overflow=hidden;fillColor=none;top=0;left=0;bottom=0;right=0;pointerEvents=1;fontSize=15;" vertex="1" parent="aPNfkUZCIj8OY--DICkq-175">
          <mxGeometry x="81" width="19" height="21" as="geometry">
            <mxRectangle width="19" height="21" as="alternateBounds" />
          </mxGeometry>
        </mxCell>
        <mxCell id="aPNfkUZCIj8OY--DICkq-181" value="" style="shape=partialRectangle;html=1;whiteSpace=wrap;connectable=0;overflow=hidden;fillColor=none;top=0;left=0;bottom=0;right=0;pointerEvents=1;fontSize=15;" vertex="1" parent="aPNfkUZCIj8OY--DICkq-175">
          <mxGeometry x="100" width="20" height="21" as="geometry">
            <mxRectangle width="20" height="21" as="alternateBounds" />
          </mxGeometry>
        </mxCell>
        <mxCell id="aPNfkUZCIj8OY--DICkq-182" value="" style="shape=partialRectangle;html=1;whiteSpace=wrap;connectable=0;overflow=hidden;fillColor=none;top=0;left=0;bottom=0;right=0;pointerEvents=1;fontSize=15;" vertex="1" parent="aPNfkUZCIj8OY--DICkq-175">
          <mxGeometry x="120" width="20" height="21" as="geometry">
            <mxRectangle width="20" height="21" as="alternateBounds" />
          </mxGeometry>
        </mxCell>
        <mxCell id="aPNfkUZCIj8OY--DICkq-183" value="" style="shape=partialRectangle;html=1;whiteSpace=wrap;connectable=0;overflow=hidden;fillColor=none;top=0;left=0;bottom=0;right=0;pointerEvents=1;fontSize=15;" vertex="1" parent="aPNfkUZCIj8OY--DICkq-175">
          <mxGeometry x="140" width="20" height="21" as="geometry">
            <mxRectangle width="20" height="21" as="alternateBounds" />
          </mxGeometry>
        </mxCell>
        <mxCell id="aPNfkUZCIj8OY--DICkq-184" value="" style="shape=partialRectangle;html=1;whiteSpace=wrap;connectable=0;overflow=hidden;fillColor=none;top=0;left=0;bottom=0;right=0;pointerEvents=1;fontSize=15;" vertex="1" parent="aPNfkUZCIj8OY--DICkq-175">
          <mxGeometry x="160" width="20" height="21" as="geometry">
            <mxRectangle width="20" height="21" as="alternateBounds" />
          </mxGeometry>
        </mxCell>
        <mxCell id="aPNfkUZCIj8OY--DICkq-185" value="" style="shape=partialRectangle;html=1;whiteSpace=wrap;connectable=0;overflow=hidden;fillColor=none;top=0;left=0;bottom=0;right=0;pointerEvents=1;fontSize=15;" vertex="1" parent="aPNfkUZCIj8OY--DICkq-175">
          <mxGeometry x="180" width="19" height="21" as="geometry">
            <mxRectangle width="19" height="21" as="alternateBounds" />
          </mxGeometry>
        </mxCell>
        <mxCell id="aPNfkUZCIj8OY--DICkq-186" value="" style="shape=partialRectangle;html=1;whiteSpace=wrap;connectable=0;overflow=hidden;fillColor=none;top=0;left=0;bottom=0;right=0;pointerEvents=1;fontSize=15;" vertex="1" parent="aPNfkUZCIj8OY--DICkq-175">
          <mxGeometry x="199" width="22" height="21" as="geometry">
            <mxRectangle width="22" height="21" as="alternateBounds" />
          </mxGeometry>
        </mxCell>
        <mxCell id="aPNfkUZCIj8OY--DICkq-187" value="" style="shape=partialRectangle;html=1;whiteSpace=wrap;connectable=0;overflow=hidden;fillColor=none;top=0;left=0;bottom=0;right=0;pointerEvents=1;fontSize=15;" vertex="1" parent="aPNfkUZCIj8OY--DICkq-175">
          <mxGeometry x="221" width="19" height="21" as="geometry">
            <mxRectangle width="19" height="21" as="alternateBounds" />
          </mxGeometry>
        </mxCell>
        <mxCell id="aPNfkUZCIj8OY--DICkq-188" value="" style="shape=partialRectangle;html=1;whiteSpace=wrap;connectable=0;overflow=hidden;fillColor=none;top=0;left=0;bottom=0;right=0;pointerEvents=1;fontSize=15;" vertex="1" parent="aPNfkUZCIj8OY--DICkq-175">
          <mxGeometry x="240" width="20" height="21" as="geometry">
            <mxRectangle width="20" height="21" as="alternateBounds" />
          </mxGeometry>
        </mxCell>
        <mxCell id="aPNfkUZCIj8OY--DICkq-189" value="" style="shape=partialRectangle;html=1;whiteSpace=wrap;connectable=0;overflow=hidden;fillColor=none;top=0;left=0;bottom=0;right=0;pointerEvents=1;fontSize=15;" vertex="1" parent="aPNfkUZCIj8OY--DICkq-175">
          <mxGeometry x="260" width="20" height="21" as="geometry">
            <mxRectangle width="20" height="21" as="alternateBounds" />
          </mxGeometry>
        </mxCell>
        <mxCell id="aPNfkUZCIj8OY--DICkq-190" value="" style="shape=partialRectangle;collapsible=0;dropTarget=0;pointerEvents=0;fillColor=none;top=0;left=0;bottom=0;right=0;points=[[0,0.5],[1,0.5]];portConstraint=eastwest;fontSize=15;" vertex="1" parent="aPNfkUZCIj8OY--DICkq-174">
          <mxGeometry y="21" width="280" height="21" as="geometry" />
        </mxCell>
        <mxCell id="aPNfkUZCIj8OY--DICkq-191" value="" style="shape=partialRectangle;html=1;whiteSpace=wrap;connectable=0;overflow=hidden;fillColor=none;top=0;left=0;bottom=0;right=0;pointerEvents=1;fontSize=15;" vertex="1" parent="aPNfkUZCIj8OY--DICkq-190">
          <mxGeometry width="20" height="21" as="geometry">
            <mxRectangle width="20" height="21" as="alternateBounds" />
          </mxGeometry>
        </mxCell>
        <mxCell id="aPNfkUZCIj8OY--DICkq-192" value="" style="shape=partialRectangle;html=1;whiteSpace=wrap;connectable=0;overflow=hidden;fillColor=none;top=0;left=0;bottom=0;right=0;pointerEvents=1;fontSize=15;" vertex="1" parent="aPNfkUZCIj8OY--DICkq-190">
          <mxGeometry x="20" width="20" height="21" as="geometry">
            <mxRectangle width="20" height="21" as="alternateBounds" />
          </mxGeometry>
        </mxCell>
        <mxCell id="aPNfkUZCIj8OY--DICkq-193" value="" style="shape=partialRectangle;html=1;whiteSpace=wrap;connectable=0;overflow=hidden;fillColor=none;top=0;left=0;bottom=0;right=0;pointerEvents=1;fontSize=15;" vertex="1" parent="aPNfkUZCIj8OY--DICkq-190">
          <mxGeometry x="40" width="19" height="21" as="geometry">
            <mxRectangle width="19" height="21" as="alternateBounds" />
          </mxGeometry>
        </mxCell>
        <mxCell id="aPNfkUZCIj8OY--DICkq-194" value="" style="shape=partialRectangle;html=1;whiteSpace=wrap;connectable=0;overflow=hidden;fillColor=none;top=0;left=0;bottom=0;right=0;pointerEvents=1;fontSize=15;" vertex="1" parent="aPNfkUZCIj8OY--DICkq-190">
          <mxGeometry x="59" width="22" height="21" as="geometry">
            <mxRectangle width="22" height="21" as="alternateBounds" />
          </mxGeometry>
        </mxCell>
        <mxCell id="aPNfkUZCIj8OY--DICkq-195" value="" style="shape=partialRectangle;html=1;whiteSpace=wrap;connectable=0;overflow=hidden;fillColor=none;top=0;left=0;bottom=0;right=0;pointerEvents=1;fontSize=15;" vertex="1" parent="aPNfkUZCIj8OY--DICkq-190">
          <mxGeometry x="81" width="19" height="21" as="geometry">
            <mxRectangle width="19" height="21" as="alternateBounds" />
          </mxGeometry>
        </mxCell>
        <mxCell id="aPNfkUZCIj8OY--DICkq-196" value="" style="shape=partialRectangle;html=1;whiteSpace=wrap;connectable=0;overflow=hidden;fillColor=none;top=0;left=0;bottom=0;right=0;pointerEvents=1;fontSize=15;" vertex="1" parent="aPNfkUZCIj8OY--DICkq-190">
          <mxGeometry x="100" width="20" height="21" as="geometry">
            <mxRectangle width="20" height="21" as="alternateBounds" />
          </mxGeometry>
        </mxCell>
        <mxCell id="aPNfkUZCIj8OY--DICkq-197" value="" style="shape=partialRectangle;html=1;whiteSpace=wrap;connectable=0;overflow=hidden;fillColor=none;top=0;left=0;bottom=0;right=0;pointerEvents=1;fontSize=15;" vertex="1" parent="aPNfkUZCIj8OY--DICkq-190">
          <mxGeometry x="120" width="20" height="21" as="geometry">
            <mxRectangle width="20" height="21" as="alternateBounds" />
          </mxGeometry>
        </mxCell>
        <mxCell id="aPNfkUZCIj8OY--DICkq-198" value="" style="shape=partialRectangle;html=1;whiteSpace=wrap;connectable=0;overflow=hidden;fillColor=none;top=0;left=0;bottom=0;right=0;pointerEvents=1;fontSize=15;" vertex="1" parent="aPNfkUZCIj8OY--DICkq-190">
          <mxGeometry x="140" width="20" height="21" as="geometry">
            <mxRectangle width="20" height="21" as="alternateBounds" />
          </mxGeometry>
        </mxCell>
        <mxCell id="aPNfkUZCIj8OY--DICkq-199" value="" style="shape=partialRectangle;html=1;whiteSpace=wrap;connectable=0;overflow=hidden;fillColor=none;top=0;left=0;bottom=0;right=0;pointerEvents=1;fontSize=15;" vertex="1" parent="aPNfkUZCIj8OY--DICkq-190">
          <mxGeometry x="160" width="20" height="21" as="geometry">
            <mxRectangle width="20" height="21" as="alternateBounds" />
          </mxGeometry>
        </mxCell>
        <mxCell id="aPNfkUZCIj8OY--DICkq-200" value="" style="shape=partialRectangle;html=1;whiteSpace=wrap;connectable=0;overflow=hidden;fillColor=none;top=0;left=0;bottom=0;right=0;pointerEvents=1;fontSize=15;" vertex="1" parent="aPNfkUZCIj8OY--DICkq-190">
          <mxGeometry x="180" width="19" height="21" as="geometry">
            <mxRectangle width="19" height="21" as="alternateBounds" />
          </mxGeometry>
        </mxCell>
        <mxCell id="aPNfkUZCIj8OY--DICkq-201" value="" style="shape=partialRectangle;html=1;whiteSpace=wrap;connectable=0;overflow=hidden;fillColor=none;top=0;left=0;bottom=0;right=0;pointerEvents=1;fontSize=15;" vertex="1" parent="aPNfkUZCIj8OY--DICkq-190">
          <mxGeometry x="199" width="22" height="21" as="geometry">
            <mxRectangle width="22" height="21" as="alternateBounds" />
          </mxGeometry>
        </mxCell>
        <mxCell id="aPNfkUZCIj8OY--DICkq-202" value="" style="shape=partialRectangle;html=1;whiteSpace=wrap;connectable=0;overflow=hidden;fillColor=none;top=0;left=0;bottom=0;right=0;pointerEvents=1;fontSize=15;" vertex="1" parent="aPNfkUZCIj8OY--DICkq-190">
          <mxGeometry x="221" width="19" height="21" as="geometry">
            <mxRectangle width="19" height="21" as="alternateBounds" />
          </mxGeometry>
        </mxCell>
        <mxCell id="aPNfkUZCIj8OY--DICkq-203" value="" style="shape=partialRectangle;html=1;whiteSpace=wrap;connectable=0;overflow=hidden;fillColor=none;top=0;left=0;bottom=0;right=0;pointerEvents=1;fontSize=15;" vertex="1" parent="aPNfkUZCIj8OY--DICkq-190">
          <mxGeometry x="240" width="20" height="21" as="geometry">
            <mxRectangle width="20" height="21" as="alternateBounds" />
          </mxGeometry>
        </mxCell>
        <mxCell id="aPNfkUZCIj8OY--DICkq-204" value="" style="shape=partialRectangle;html=1;whiteSpace=wrap;connectable=0;overflow=hidden;fillColor=none;top=0;left=0;bottom=0;right=0;pointerEvents=1;fontSize=15;" vertex="1" parent="aPNfkUZCIj8OY--DICkq-190">
          <mxGeometry x="260" width="20" height="21" as="geometry">
            <mxRectangle width="20" height="21" as="alternateBounds" />
          </mxGeometry>
        </mxCell>
        <mxCell id="aPNfkUZCIj8OY--DICkq-205" value="" style="shape=partialRectangle;collapsible=0;dropTarget=0;pointerEvents=0;fillColor=none;top=0;left=0;bottom=0;right=0;points=[[0,0.5],[1,0.5]];portConstraint=eastwest;fontSize=15;" vertex="1" parent="aPNfkUZCIj8OY--DICkq-174">
          <mxGeometry y="42" width="280" height="20" as="geometry" />
        </mxCell>
        <mxCell id="aPNfkUZCIj8OY--DICkq-206" value="" style="shape=partialRectangle;html=1;whiteSpace=wrap;connectable=0;overflow=hidden;fillColor=none;top=0;left=0;bottom=0;right=0;pointerEvents=1;fontSize=15;" vertex="1" parent="aPNfkUZCIj8OY--DICkq-205">
          <mxGeometry width="20" height="20" as="geometry">
            <mxRectangle width="20" height="20" as="alternateBounds" />
          </mxGeometry>
        </mxCell>
        <mxCell id="aPNfkUZCIj8OY--DICkq-207" value="" style="shape=partialRectangle;html=1;whiteSpace=wrap;connectable=0;overflow=hidden;fillColor=none;top=0;left=0;bottom=0;right=0;pointerEvents=1;fontSize=15;" vertex="1" parent="aPNfkUZCIj8OY--DICkq-205">
          <mxGeometry x="20" width="20" height="20" as="geometry">
            <mxRectangle width="20" height="20" as="alternateBounds" />
          </mxGeometry>
        </mxCell>
        <mxCell id="aPNfkUZCIj8OY--DICkq-208" value="" style="shape=partialRectangle;html=1;whiteSpace=wrap;connectable=0;overflow=hidden;fillColor=none;top=0;left=0;bottom=0;right=0;pointerEvents=1;fontSize=15;" vertex="1" parent="aPNfkUZCIj8OY--DICkq-205">
          <mxGeometry x="40" width="19" height="20" as="geometry">
            <mxRectangle width="19" height="20" as="alternateBounds" />
          </mxGeometry>
        </mxCell>
        <mxCell id="aPNfkUZCIj8OY--DICkq-209" value="" style="shape=partialRectangle;html=1;whiteSpace=wrap;connectable=0;overflow=hidden;fillColor=none;top=0;left=0;bottom=0;right=0;pointerEvents=1;fontSize=15;" vertex="1" parent="aPNfkUZCIj8OY--DICkq-205">
          <mxGeometry x="59" width="22" height="20" as="geometry">
            <mxRectangle width="22" height="20" as="alternateBounds" />
          </mxGeometry>
        </mxCell>
        <mxCell id="aPNfkUZCIj8OY--DICkq-210" value="" style="shape=partialRectangle;html=1;whiteSpace=wrap;connectable=0;overflow=hidden;fillColor=none;top=0;left=0;bottom=0;right=0;pointerEvents=1;fontSize=15;" vertex="1" parent="aPNfkUZCIj8OY--DICkq-205">
          <mxGeometry x="81" width="19" height="20" as="geometry">
            <mxRectangle width="19" height="20" as="alternateBounds" />
          </mxGeometry>
        </mxCell>
        <mxCell id="aPNfkUZCIj8OY--DICkq-211" value="" style="shape=partialRectangle;html=1;whiteSpace=wrap;connectable=0;overflow=hidden;fillColor=none;top=0;left=0;bottom=0;right=0;pointerEvents=1;fontSize=15;" vertex="1" parent="aPNfkUZCIj8OY--DICkq-205">
          <mxGeometry x="100" width="20" height="20" as="geometry">
            <mxRectangle width="20" height="20" as="alternateBounds" />
          </mxGeometry>
        </mxCell>
        <mxCell id="aPNfkUZCIj8OY--DICkq-212" value="" style="shape=partialRectangle;html=1;whiteSpace=wrap;connectable=0;overflow=hidden;fillColor=none;top=0;left=0;bottom=0;right=0;pointerEvents=1;fontSize=15;" vertex="1" parent="aPNfkUZCIj8OY--DICkq-205">
          <mxGeometry x="120" width="20" height="20" as="geometry">
            <mxRectangle width="20" height="20" as="alternateBounds" />
          </mxGeometry>
        </mxCell>
        <mxCell id="aPNfkUZCIj8OY--DICkq-213" value="" style="shape=partialRectangle;html=1;whiteSpace=wrap;connectable=0;overflow=hidden;fillColor=none;top=0;left=0;bottom=0;right=0;pointerEvents=1;fontSize=15;" vertex="1" parent="aPNfkUZCIj8OY--DICkq-205">
          <mxGeometry x="140" width="20" height="20" as="geometry">
            <mxRectangle width="20" height="20" as="alternateBounds" />
          </mxGeometry>
        </mxCell>
        <mxCell id="aPNfkUZCIj8OY--DICkq-214" value="" style="shape=partialRectangle;html=1;whiteSpace=wrap;connectable=0;overflow=hidden;fillColor=none;top=0;left=0;bottom=0;right=0;pointerEvents=1;fontSize=15;" vertex="1" parent="aPNfkUZCIj8OY--DICkq-205">
          <mxGeometry x="160" width="20" height="20" as="geometry">
            <mxRectangle width="20" height="20" as="alternateBounds" />
          </mxGeometry>
        </mxCell>
        <mxCell id="aPNfkUZCIj8OY--DICkq-215" value="" style="shape=partialRectangle;html=1;whiteSpace=wrap;connectable=0;overflow=hidden;fillColor=none;top=0;left=0;bottom=0;right=0;pointerEvents=1;fontSize=15;" vertex="1" parent="aPNfkUZCIj8OY--DICkq-205">
          <mxGeometry x="180" width="19" height="20" as="geometry">
            <mxRectangle width="19" height="20" as="alternateBounds" />
          </mxGeometry>
        </mxCell>
        <mxCell id="aPNfkUZCIj8OY--DICkq-216" value="" style="shape=partialRectangle;html=1;whiteSpace=wrap;connectable=0;overflow=hidden;fillColor=none;top=0;left=0;bottom=0;right=0;pointerEvents=1;fontSize=15;" vertex="1" parent="aPNfkUZCIj8OY--DICkq-205">
          <mxGeometry x="199" width="22" height="20" as="geometry">
            <mxRectangle width="22" height="20" as="alternateBounds" />
          </mxGeometry>
        </mxCell>
        <mxCell id="aPNfkUZCIj8OY--DICkq-217" value="" style="shape=partialRectangle;html=1;whiteSpace=wrap;connectable=0;overflow=hidden;fillColor=none;top=0;left=0;bottom=0;right=0;pointerEvents=1;fontSize=15;" vertex="1" parent="aPNfkUZCIj8OY--DICkq-205">
          <mxGeometry x="221" width="19" height="20" as="geometry">
            <mxRectangle width="19" height="20" as="alternateBounds" />
          </mxGeometry>
        </mxCell>
        <mxCell id="aPNfkUZCIj8OY--DICkq-218" value="" style="shape=partialRectangle;html=1;whiteSpace=wrap;connectable=0;overflow=hidden;fillColor=none;top=0;left=0;bottom=0;right=0;pointerEvents=1;fontSize=15;" vertex="1" parent="aPNfkUZCIj8OY--DICkq-205">
          <mxGeometry x="240" width="20" height="20" as="geometry">
            <mxRectangle width="20" height="20" as="alternateBounds" />
          </mxGeometry>
        </mxCell>
        <mxCell id="aPNfkUZCIj8OY--DICkq-219" value="" style="shape=partialRectangle;html=1;whiteSpace=wrap;connectable=0;overflow=hidden;fillColor=none;top=0;left=0;bottom=0;right=0;pointerEvents=1;fontSize=15;" vertex="1" parent="aPNfkUZCIj8OY--DICkq-205">
          <mxGeometry x="260" width="20" height="20" as="geometry">
            <mxRectangle width="20" height="20" as="alternateBounds" />
          </mxGeometry>
        </mxCell>
        <mxCell id="aPNfkUZCIj8OY--DICkq-220" value="" style="shape=partialRectangle;collapsible=0;dropTarget=0;pointerEvents=0;fillColor=none;top=0;left=0;bottom=0;right=0;points=[[0,0.5],[1,0.5]];portConstraint=eastwest;fontSize=15;" vertex="1" parent="aPNfkUZCIj8OY--DICkq-174">
          <mxGeometry y="62" width="280" height="21" as="geometry" />
        </mxCell>
        <mxCell id="aPNfkUZCIj8OY--DICkq-221" value="" style="shape=partialRectangle;html=1;whiteSpace=wrap;connectable=0;overflow=hidden;fillColor=none;top=0;left=0;bottom=0;right=0;pointerEvents=1;fontSize=15;" vertex="1" parent="aPNfkUZCIj8OY--DICkq-220">
          <mxGeometry width="20" height="21" as="geometry">
            <mxRectangle width="20" height="21" as="alternateBounds" />
          </mxGeometry>
        </mxCell>
        <mxCell id="aPNfkUZCIj8OY--DICkq-222" value="" style="shape=partialRectangle;html=1;whiteSpace=wrap;connectable=0;overflow=hidden;fillColor=none;top=0;left=0;bottom=0;right=0;pointerEvents=1;fontSize=15;" vertex="1" parent="aPNfkUZCIj8OY--DICkq-220">
          <mxGeometry x="20" width="20" height="21" as="geometry">
            <mxRectangle width="20" height="21" as="alternateBounds" />
          </mxGeometry>
        </mxCell>
        <mxCell id="aPNfkUZCIj8OY--DICkq-223" value="" style="shape=partialRectangle;html=1;whiteSpace=wrap;connectable=0;overflow=hidden;fillColor=none;top=0;left=0;bottom=0;right=0;pointerEvents=1;fontSize=15;" vertex="1" parent="aPNfkUZCIj8OY--DICkq-220">
          <mxGeometry x="40" width="19" height="21" as="geometry">
            <mxRectangle width="19" height="21" as="alternateBounds" />
          </mxGeometry>
        </mxCell>
        <mxCell id="aPNfkUZCIj8OY--DICkq-224" value="" style="shape=partialRectangle;html=1;whiteSpace=wrap;connectable=0;overflow=hidden;fillColor=none;top=0;left=0;bottom=0;right=0;pointerEvents=1;fontSize=15;" vertex="1" parent="aPNfkUZCIj8OY--DICkq-220">
          <mxGeometry x="59" width="22" height="21" as="geometry">
            <mxRectangle width="22" height="21" as="alternateBounds" />
          </mxGeometry>
        </mxCell>
        <mxCell id="aPNfkUZCIj8OY--DICkq-225" value="" style="shape=partialRectangle;html=1;whiteSpace=wrap;connectable=0;overflow=hidden;fillColor=none;top=0;left=0;bottom=0;right=0;pointerEvents=1;fontSize=15;" vertex="1" parent="aPNfkUZCIj8OY--DICkq-220">
          <mxGeometry x="81" width="19" height="21" as="geometry">
            <mxRectangle width="19" height="21" as="alternateBounds" />
          </mxGeometry>
        </mxCell>
        <mxCell id="aPNfkUZCIj8OY--DICkq-226" value="" style="shape=partialRectangle;html=1;whiteSpace=wrap;connectable=0;overflow=hidden;fillColor=none;top=0;left=0;bottom=0;right=0;pointerEvents=1;fontSize=15;" vertex="1" parent="aPNfkUZCIj8OY--DICkq-220">
          <mxGeometry x="100" width="20" height="21" as="geometry">
            <mxRectangle width="20" height="21" as="alternateBounds" />
          </mxGeometry>
        </mxCell>
        <mxCell id="aPNfkUZCIj8OY--DICkq-227" value="" style="shape=partialRectangle;html=1;whiteSpace=wrap;connectable=0;overflow=hidden;fillColor=none;top=0;left=0;bottom=0;right=0;pointerEvents=1;fontSize=15;" vertex="1" parent="aPNfkUZCIj8OY--DICkq-220">
          <mxGeometry x="120" width="20" height="21" as="geometry">
            <mxRectangle width="20" height="21" as="alternateBounds" />
          </mxGeometry>
        </mxCell>
        <mxCell id="aPNfkUZCIj8OY--DICkq-228" value="" style="shape=partialRectangle;html=1;whiteSpace=wrap;connectable=0;overflow=hidden;fillColor=none;top=0;left=0;bottom=0;right=0;pointerEvents=1;fontSize=15;" vertex="1" parent="aPNfkUZCIj8OY--DICkq-220">
          <mxGeometry x="140" width="20" height="21" as="geometry">
            <mxRectangle width="20" height="21" as="alternateBounds" />
          </mxGeometry>
        </mxCell>
        <mxCell id="aPNfkUZCIj8OY--DICkq-229" value="" style="shape=partialRectangle;html=1;whiteSpace=wrap;connectable=0;overflow=hidden;fillColor=none;top=0;left=0;bottom=0;right=0;pointerEvents=1;fontSize=15;" vertex="1" parent="aPNfkUZCIj8OY--DICkq-220">
          <mxGeometry x="160" width="20" height="21" as="geometry">
            <mxRectangle width="20" height="21" as="alternateBounds" />
          </mxGeometry>
        </mxCell>
        <mxCell id="aPNfkUZCIj8OY--DICkq-230" value="" style="shape=partialRectangle;html=1;whiteSpace=wrap;connectable=0;overflow=hidden;fillColor=none;top=0;left=0;bottom=0;right=0;pointerEvents=1;fontSize=15;" vertex="1" parent="aPNfkUZCIj8OY--DICkq-220">
          <mxGeometry x="180" width="19" height="21" as="geometry">
            <mxRectangle width="19" height="21" as="alternateBounds" />
          </mxGeometry>
        </mxCell>
        <mxCell id="aPNfkUZCIj8OY--DICkq-231" value="" style="shape=partialRectangle;html=1;whiteSpace=wrap;connectable=0;overflow=hidden;fillColor=none;top=0;left=0;bottom=0;right=0;pointerEvents=1;fontSize=15;" vertex="1" parent="aPNfkUZCIj8OY--DICkq-220">
          <mxGeometry x="199" width="22" height="21" as="geometry">
            <mxRectangle width="22" height="21" as="alternateBounds" />
          </mxGeometry>
        </mxCell>
        <mxCell id="aPNfkUZCIj8OY--DICkq-232" value="" style="shape=partialRectangle;html=1;whiteSpace=wrap;connectable=0;overflow=hidden;fillColor=none;top=0;left=0;bottom=0;right=0;pointerEvents=1;fontSize=15;" vertex="1" parent="aPNfkUZCIj8OY--DICkq-220">
          <mxGeometry x="221" width="19" height="21" as="geometry">
            <mxRectangle width="19" height="21" as="alternateBounds" />
          </mxGeometry>
        </mxCell>
        <mxCell id="aPNfkUZCIj8OY--DICkq-233" value="" style="shape=partialRectangle;html=1;whiteSpace=wrap;connectable=0;overflow=hidden;fillColor=none;top=0;left=0;bottom=0;right=0;pointerEvents=1;fontSize=15;" vertex="1" parent="aPNfkUZCIj8OY--DICkq-220">
          <mxGeometry x="240" width="20" height="21" as="geometry">
            <mxRectangle width="20" height="21" as="alternateBounds" />
          </mxGeometry>
        </mxCell>
        <mxCell id="aPNfkUZCIj8OY--DICkq-234" value="" style="shape=partialRectangle;html=1;whiteSpace=wrap;connectable=0;overflow=hidden;fillColor=none;top=0;left=0;bottom=0;right=0;pointerEvents=1;fontSize=15;" vertex="1" parent="aPNfkUZCIj8OY--DICkq-220">
          <mxGeometry x="260" width="20" height="21" as="geometry">
            <mxRectangle width="20" height="21" as="alternateBounds" />
          </mxGeometry>
        </mxCell>
        <mxCell id="aPNfkUZCIj8OY--DICkq-235" value="" style="shape=partialRectangle;collapsible=0;dropTarget=0;pointerEvents=0;fillColor=none;top=0;left=0;bottom=0;right=0;points=[[0,0.5],[1,0.5]];portConstraint=eastwest;fontSize=15;" vertex="1" parent="aPNfkUZCIj8OY--DICkq-174">
          <mxGeometry y="83" width="280" height="21" as="geometry" />
        </mxCell>
        <mxCell id="aPNfkUZCIj8OY--DICkq-236" value="" style="shape=partialRectangle;html=1;whiteSpace=wrap;connectable=0;overflow=hidden;fillColor=none;top=0;left=0;bottom=0;right=0;pointerEvents=1;fontSize=15;" vertex="1" parent="aPNfkUZCIj8OY--DICkq-235">
          <mxGeometry width="20" height="21" as="geometry">
            <mxRectangle width="20" height="21" as="alternateBounds" />
          </mxGeometry>
        </mxCell>
        <mxCell id="aPNfkUZCIj8OY--DICkq-237" value="" style="shape=partialRectangle;html=1;whiteSpace=wrap;connectable=0;overflow=hidden;fillColor=none;top=0;left=0;bottom=0;right=0;pointerEvents=1;fontSize=15;" vertex="1" parent="aPNfkUZCIj8OY--DICkq-235">
          <mxGeometry x="20" width="20" height="21" as="geometry">
            <mxRectangle width="20" height="21" as="alternateBounds" />
          </mxGeometry>
        </mxCell>
        <mxCell id="aPNfkUZCIj8OY--DICkq-238" value="" style="shape=partialRectangle;html=1;whiteSpace=wrap;connectable=0;overflow=hidden;fillColor=none;top=0;left=0;bottom=0;right=0;pointerEvents=1;fontSize=15;" vertex="1" parent="aPNfkUZCIj8OY--DICkq-235">
          <mxGeometry x="40" width="19" height="21" as="geometry">
            <mxRectangle width="19" height="21" as="alternateBounds" />
          </mxGeometry>
        </mxCell>
        <mxCell id="aPNfkUZCIj8OY--DICkq-239" value="" style="shape=partialRectangle;html=1;whiteSpace=wrap;connectable=0;overflow=hidden;fillColor=none;top=0;left=0;bottom=0;right=0;pointerEvents=1;fontSize=15;" vertex="1" parent="aPNfkUZCIj8OY--DICkq-235">
          <mxGeometry x="59" width="22" height="21" as="geometry">
            <mxRectangle width="22" height="21" as="alternateBounds" />
          </mxGeometry>
        </mxCell>
        <mxCell id="aPNfkUZCIj8OY--DICkq-240" value="" style="shape=partialRectangle;html=1;whiteSpace=wrap;connectable=0;overflow=hidden;fillColor=none;top=0;left=0;bottom=0;right=0;pointerEvents=1;fontSize=15;" vertex="1" parent="aPNfkUZCIj8OY--DICkq-235">
          <mxGeometry x="81" width="19" height="21" as="geometry">
            <mxRectangle width="19" height="21" as="alternateBounds" />
          </mxGeometry>
        </mxCell>
        <mxCell id="aPNfkUZCIj8OY--DICkq-241" value="" style="shape=partialRectangle;html=1;whiteSpace=wrap;connectable=0;overflow=hidden;fillColor=none;top=0;left=0;bottom=0;right=0;pointerEvents=1;fontSize=15;" vertex="1" parent="aPNfkUZCIj8OY--DICkq-235">
          <mxGeometry x="100" width="20" height="21" as="geometry">
            <mxRectangle width="20" height="21" as="alternateBounds" />
          </mxGeometry>
        </mxCell>
        <mxCell id="aPNfkUZCIj8OY--DICkq-242" value="" style="shape=partialRectangle;html=1;whiteSpace=wrap;connectable=0;overflow=hidden;fillColor=none;top=0;left=0;bottom=0;right=0;pointerEvents=1;fontSize=15;" vertex="1" parent="aPNfkUZCIj8OY--DICkq-235">
          <mxGeometry x="120" width="20" height="21" as="geometry">
            <mxRectangle width="20" height="21" as="alternateBounds" />
          </mxGeometry>
        </mxCell>
        <mxCell id="aPNfkUZCIj8OY--DICkq-243" value="" style="shape=partialRectangle;html=1;whiteSpace=wrap;connectable=0;overflow=hidden;fillColor=none;top=0;left=0;bottom=0;right=0;pointerEvents=1;fontSize=15;" vertex="1" parent="aPNfkUZCIj8OY--DICkq-235">
          <mxGeometry x="140" width="20" height="21" as="geometry">
            <mxRectangle width="20" height="21" as="alternateBounds" />
          </mxGeometry>
        </mxCell>
        <mxCell id="aPNfkUZCIj8OY--DICkq-244" value="" style="shape=partialRectangle;html=1;whiteSpace=wrap;connectable=0;overflow=hidden;fillColor=none;top=0;left=0;bottom=0;right=0;pointerEvents=1;fontSize=15;" vertex="1" parent="aPNfkUZCIj8OY--DICkq-235">
          <mxGeometry x="160" width="20" height="21" as="geometry">
            <mxRectangle width="20" height="21" as="alternateBounds" />
          </mxGeometry>
        </mxCell>
        <mxCell id="aPNfkUZCIj8OY--DICkq-245" value="" style="shape=partialRectangle;html=1;whiteSpace=wrap;connectable=0;overflow=hidden;fillColor=none;top=0;left=0;bottom=0;right=0;pointerEvents=1;fontSize=15;" vertex="1" parent="aPNfkUZCIj8OY--DICkq-235">
          <mxGeometry x="180" width="19" height="21" as="geometry">
            <mxRectangle width="19" height="21" as="alternateBounds" />
          </mxGeometry>
        </mxCell>
        <mxCell id="aPNfkUZCIj8OY--DICkq-246" value="" style="shape=partialRectangle;html=1;whiteSpace=wrap;connectable=0;overflow=hidden;fillColor=none;top=0;left=0;bottom=0;right=0;pointerEvents=1;fontSize=15;" vertex="1" parent="aPNfkUZCIj8OY--DICkq-235">
          <mxGeometry x="199" width="22" height="21" as="geometry">
            <mxRectangle width="22" height="21" as="alternateBounds" />
          </mxGeometry>
        </mxCell>
        <mxCell id="aPNfkUZCIj8OY--DICkq-247" value="" style="shape=partialRectangle;html=1;whiteSpace=wrap;connectable=0;overflow=hidden;fillColor=none;top=0;left=0;bottom=0;right=0;pointerEvents=1;fontSize=15;" vertex="1" parent="aPNfkUZCIj8OY--DICkq-235">
          <mxGeometry x="221" width="19" height="21" as="geometry">
            <mxRectangle width="19" height="21" as="alternateBounds" />
          </mxGeometry>
        </mxCell>
        <mxCell id="aPNfkUZCIj8OY--DICkq-248" value="" style="shape=partialRectangle;html=1;whiteSpace=wrap;connectable=0;overflow=hidden;fillColor=none;top=0;left=0;bottom=0;right=0;pointerEvents=1;fontSize=15;" vertex="1" parent="aPNfkUZCIj8OY--DICkq-235">
          <mxGeometry x="240" width="20" height="21" as="geometry">
            <mxRectangle width="20" height="21" as="alternateBounds" />
          </mxGeometry>
        </mxCell>
        <mxCell id="aPNfkUZCIj8OY--DICkq-249" value="" style="shape=partialRectangle;html=1;whiteSpace=wrap;connectable=0;overflow=hidden;fillColor=none;top=0;left=0;bottom=0;right=0;pointerEvents=1;fontSize=15;" vertex="1" parent="aPNfkUZCIj8OY--DICkq-235">
          <mxGeometry x="260" width="20" height="21" as="geometry">
            <mxRectangle width="20" height="21" as="alternateBounds" />
          </mxGeometry>
        </mxCell>
        <mxCell id="aPNfkUZCIj8OY--DICkq-250" value="" style="shape=partialRectangle;collapsible=0;dropTarget=0;pointerEvents=0;fillColor=none;top=0;left=0;bottom=0;right=0;points=[[0,0.5],[1,0.5]];portConstraint=eastwest;fontSize=15;" vertex="1" parent="aPNfkUZCIj8OY--DICkq-174">
          <mxGeometry y="104" width="280" height="22" as="geometry" />
        </mxCell>
        <mxCell id="aPNfkUZCIj8OY--DICkq-251" value="" style="shape=partialRectangle;html=1;whiteSpace=wrap;connectable=0;overflow=hidden;fillColor=none;top=0;left=0;bottom=0;right=0;pointerEvents=1;fontSize=15;" vertex="1" parent="aPNfkUZCIj8OY--DICkq-250">
          <mxGeometry width="20" height="22" as="geometry">
            <mxRectangle width="20" height="22" as="alternateBounds" />
          </mxGeometry>
        </mxCell>
        <mxCell id="aPNfkUZCIj8OY--DICkq-252" value="" style="shape=partialRectangle;html=1;whiteSpace=wrap;connectable=0;overflow=hidden;fillColor=none;top=0;left=0;bottom=0;right=0;pointerEvents=1;fontSize=15;" vertex="1" parent="aPNfkUZCIj8OY--DICkq-250">
          <mxGeometry x="20" width="20" height="22" as="geometry">
            <mxRectangle width="20" height="22" as="alternateBounds" />
          </mxGeometry>
        </mxCell>
        <mxCell id="aPNfkUZCIj8OY--DICkq-253" value="" style="shape=partialRectangle;html=1;whiteSpace=wrap;connectable=0;overflow=hidden;fillColor=none;top=0;left=0;bottom=0;right=0;pointerEvents=1;fontSize=15;" vertex="1" parent="aPNfkUZCIj8OY--DICkq-250">
          <mxGeometry x="40" width="19" height="22" as="geometry">
            <mxRectangle width="19" height="22" as="alternateBounds" />
          </mxGeometry>
        </mxCell>
        <mxCell id="aPNfkUZCIj8OY--DICkq-254" value="" style="shape=partialRectangle;html=1;whiteSpace=wrap;connectable=0;overflow=hidden;fillColor=none;top=0;left=0;bottom=0;right=0;pointerEvents=1;fontSize=15;" vertex="1" parent="aPNfkUZCIj8OY--DICkq-250">
          <mxGeometry x="59" width="22" height="22" as="geometry">
            <mxRectangle width="22" height="22" as="alternateBounds" />
          </mxGeometry>
        </mxCell>
        <mxCell id="aPNfkUZCIj8OY--DICkq-255" value="" style="shape=partialRectangle;html=1;whiteSpace=wrap;connectable=0;overflow=hidden;fillColor=none;top=0;left=0;bottom=0;right=0;pointerEvents=1;fontSize=15;" vertex="1" parent="aPNfkUZCIj8OY--DICkq-250">
          <mxGeometry x="81" width="19" height="22" as="geometry">
            <mxRectangle width="19" height="22" as="alternateBounds" />
          </mxGeometry>
        </mxCell>
        <mxCell id="aPNfkUZCIj8OY--DICkq-256" value="" style="shape=partialRectangle;html=1;whiteSpace=wrap;connectable=0;overflow=hidden;fillColor=none;top=0;left=0;bottom=0;right=0;pointerEvents=1;fontSize=15;" vertex="1" parent="aPNfkUZCIj8OY--DICkq-250">
          <mxGeometry x="100" width="20" height="22" as="geometry">
            <mxRectangle width="20" height="22" as="alternateBounds" />
          </mxGeometry>
        </mxCell>
        <mxCell id="aPNfkUZCIj8OY--DICkq-257" value="" style="shape=partialRectangle;html=1;whiteSpace=wrap;connectable=0;overflow=hidden;fillColor=none;top=0;left=0;bottom=0;right=0;pointerEvents=1;fontSize=15;" vertex="1" parent="aPNfkUZCIj8OY--DICkq-250">
          <mxGeometry x="120" width="20" height="22" as="geometry">
            <mxRectangle width="20" height="22" as="alternateBounds" />
          </mxGeometry>
        </mxCell>
        <mxCell id="aPNfkUZCIj8OY--DICkq-258" value="" style="shape=partialRectangle;html=1;whiteSpace=wrap;connectable=0;overflow=hidden;fillColor=none;top=0;left=0;bottom=0;right=0;pointerEvents=1;fontSize=15;" vertex="1" parent="aPNfkUZCIj8OY--DICkq-250">
          <mxGeometry x="140" width="20" height="22" as="geometry">
            <mxRectangle width="20" height="22" as="alternateBounds" />
          </mxGeometry>
        </mxCell>
        <mxCell id="aPNfkUZCIj8OY--DICkq-259" value="" style="shape=partialRectangle;html=1;whiteSpace=wrap;connectable=0;overflow=hidden;fillColor=none;top=0;left=0;bottom=0;right=0;pointerEvents=1;fontSize=15;" vertex="1" parent="aPNfkUZCIj8OY--DICkq-250">
          <mxGeometry x="160" width="20" height="22" as="geometry">
            <mxRectangle width="20" height="22" as="alternateBounds" />
          </mxGeometry>
        </mxCell>
        <mxCell id="aPNfkUZCIj8OY--DICkq-260" value="" style="shape=partialRectangle;html=1;whiteSpace=wrap;connectable=0;overflow=hidden;fillColor=none;top=0;left=0;bottom=0;right=0;pointerEvents=1;fontSize=15;" vertex="1" parent="aPNfkUZCIj8OY--DICkq-250">
          <mxGeometry x="180" width="19" height="22" as="geometry">
            <mxRectangle width="19" height="22" as="alternateBounds" />
          </mxGeometry>
        </mxCell>
        <mxCell id="aPNfkUZCIj8OY--DICkq-261" value="" style="shape=partialRectangle;html=1;whiteSpace=wrap;connectable=0;overflow=hidden;fillColor=none;top=0;left=0;bottom=0;right=0;pointerEvents=1;fontSize=15;" vertex="1" parent="aPNfkUZCIj8OY--DICkq-250">
          <mxGeometry x="199" width="22" height="22" as="geometry">
            <mxRectangle width="22" height="22" as="alternateBounds" />
          </mxGeometry>
        </mxCell>
        <mxCell id="aPNfkUZCIj8OY--DICkq-262" value="" style="shape=partialRectangle;html=1;whiteSpace=wrap;connectable=0;overflow=hidden;fillColor=none;top=0;left=0;bottom=0;right=0;pointerEvents=1;fontSize=15;" vertex="1" parent="aPNfkUZCIj8OY--DICkq-250">
          <mxGeometry x="221" width="19" height="22" as="geometry">
            <mxRectangle width="19" height="22" as="alternateBounds" />
          </mxGeometry>
        </mxCell>
        <mxCell id="aPNfkUZCIj8OY--DICkq-263" value="" style="shape=partialRectangle;html=1;whiteSpace=wrap;connectable=0;overflow=hidden;fillColor=none;top=0;left=0;bottom=0;right=0;pointerEvents=1;fontSize=15;" vertex="1" parent="aPNfkUZCIj8OY--DICkq-250">
          <mxGeometry x="240" width="20" height="22" as="geometry">
            <mxRectangle width="20" height="22" as="alternateBounds" />
          </mxGeometry>
        </mxCell>
        <mxCell id="aPNfkUZCIj8OY--DICkq-264" value="" style="shape=partialRectangle;html=1;whiteSpace=wrap;connectable=0;overflow=hidden;fillColor=none;top=0;left=0;bottom=0;right=0;pointerEvents=1;fontSize=15;" vertex="1" parent="aPNfkUZCIj8OY--DICkq-250">
          <mxGeometry x="260" width="20" height="22" as="geometry">
            <mxRectangle width="20" height="22" as="alternateBounds" />
          </mxGeometry>
        </mxCell>
        <mxCell id="aPNfkUZCIj8OY--DICkq-265" value="" style="shape=partialRectangle;collapsible=0;dropTarget=0;pointerEvents=0;fillColor=none;top=0;left=0;bottom=0;right=0;points=[[0,0.5],[1,0.5]];portConstraint=eastwest;fontSize=15;" vertex="1" parent="aPNfkUZCIj8OY--DICkq-174">
          <mxGeometry y="126" width="280" height="21" as="geometry" />
        </mxCell>
        <mxCell id="aPNfkUZCIj8OY--DICkq-266" value="" style="shape=partialRectangle;html=1;whiteSpace=wrap;connectable=0;overflow=hidden;fillColor=none;top=0;left=0;bottom=0;right=0;pointerEvents=1;fontSize=15;" vertex="1" parent="aPNfkUZCIj8OY--DICkq-265">
          <mxGeometry width="20" height="21" as="geometry">
            <mxRectangle width="20" height="21" as="alternateBounds" />
          </mxGeometry>
        </mxCell>
        <mxCell id="aPNfkUZCIj8OY--DICkq-267" value="" style="shape=partialRectangle;html=1;whiteSpace=wrap;connectable=0;overflow=hidden;fillColor=none;top=0;left=0;bottom=0;right=0;pointerEvents=1;fontSize=15;" vertex="1" parent="aPNfkUZCIj8OY--DICkq-265">
          <mxGeometry x="20" width="20" height="21" as="geometry">
            <mxRectangle width="20" height="21" as="alternateBounds" />
          </mxGeometry>
        </mxCell>
        <mxCell id="aPNfkUZCIj8OY--DICkq-268" value="" style="shape=partialRectangle;html=1;whiteSpace=wrap;connectable=0;overflow=hidden;fillColor=none;top=0;left=0;bottom=0;right=0;pointerEvents=1;fontSize=15;" vertex="1" parent="aPNfkUZCIj8OY--DICkq-265">
          <mxGeometry x="40" width="19" height="21" as="geometry">
            <mxRectangle width="19" height="21" as="alternateBounds" />
          </mxGeometry>
        </mxCell>
        <mxCell id="aPNfkUZCIj8OY--DICkq-269" value="" style="shape=partialRectangle;html=1;whiteSpace=wrap;connectable=0;overflow=hidden;fillColor=none;top=0;left=0;bottom=0;right=0;pointerEvents=1;fontSize=15;" vertex="1" parent="aPNfkUZCIj8OY--DICkq-265">
          <mxGeometry x="59" width="22" height="21" as="geometry">
            <mxRectangle width="22" height="21" as="alternateBounds" />
          </mxGeometry>
        </mxCell>
        <mxCell id="aPNfkUZCIj8OY--DICkq-270" value="" style="shape=partialRectangle;html=1;whiteSpace=wrap;connectable=0;overflow=hidden;fillColor=none;top=0;left=0;bottom=0;right=0;pointerEvents=1;fontSize=15;" vertex="1" parent="aPNfkUZCIj8OY--DICkq-265">
          <mxGeometry x="81" width="19" height="21" as="geometry">
            <mxRectangle width="19" height="21" as="alternateBounds" />
          </mxGeometry>
        </mxCell>
        <mxCell id="aPNfkUZCIj8OY--DICkq-271" value="" style="shape=partialRectangle;html=1;whiteSpace=wrap;connectable=0;overflow=hidden;fillColor=none;top=0;left=0;bottom=0;right=0;pointerEvents=1;fontSize=15;" vertex="1" parent="aPNfkUZCIj8OY--DICkq-265">
          <mxGeometry x="100" width="20" height="21" as="geometry">
            <mxRectangle width="20" height="21" as="alternateBounds" />
          </mxGeometry>
        </mxCell>
        <mxCell id="aPNfkUZCIj8OY--DICkq-272" value="" style="shape=partialRectangle;html=1;whiteSpace=wrap;connectable=0;overflow=hidden;fillColor=none;top=0;left=0;bottom=0;right=0;pointerEvents=1;fontSize=15;" vertex="1" parent="aPNfkUZCIj8OY--DICkq-265">
          <mxGeometry x="120" width="20" height="21" as="geometry">
            <mxRectangle width="20" height="21" as="alternateBounds" />
          </mxGeometry>
        </mxCell>
        <mxCell id="aPNfkUZCIj8OY--DICkq-273" value="" style="shape=partialRectangle;html=1;whiteSpace=wrap;connectable=0;overflow=hidden;fillColor=none;top=0;left=0;bottom=0;right=0;pointerEvents=1;fontSize=15;" vertex="1" parent="aPNfkUZCIj8OY--DICkq-265">
          <mxGeometry x="140" width="20" height="21" as="geometry">
            <mxRectangle width="20" height="21" as="alternateBounds" />
          </mxGeometry>
        </mxCell>
        <mxCell id="aPNfkUZCIj8OY--DICkq-274" value="" style="shape=partialRectangle;html=1;whiteSpace=wrap;connectable=0;overflow=hidden;fillColor=none;top=0;left=0;bottom=0;right=0;pointerEvents=1;fontSize=15;" vertex="1" parent="aPNfkUZCIj8OY--DICkq-265">
          <mxGeometry x="160" width="20" height="21" as="geometry">
            <mxRectangle width="20" height="21" as="alternateBounds" />
          </mxGeometry>
        </mxCell>
        <mxCell id="aPNfkUZCIj8OY--DICkq-275" value="" style="shape=partialRectangle;html=1;whiteSpace=wrap;connectable=0;overflow=hidden;fillColor=none;top=0;left=0;bottom=0;right=0;pointerEvents=1;fontSize=15;" vertex="1" parent="aPNfkUZCIj8OY--DICkq-265">
          <mxGeometry x="180" width="19" height="21" as="geometry">
            <mxRectangle width="19" height="21" as="alternateBounds" />
          </mxGeometry>
        </mxCell>
        <mxCell id="aPNfkUZCIj8OY--DICkq-276" value="" style="shape=partialRectangle;html=1;whiteSpace=wrap;connectable=0;overflow=hidden;fillColor=none;top=0;left=0;bottom=0;right=0;pointerEvents=1;fontSize=15;" vertex="1" parent="aPNfkUZCIj8OY--DICkq-265">
          <mxGeometry x="199" width="22" height="21" as="geometry">
            <mxRectangle width="22" height="21" as="alternateBounds" />
          </mxGeometry>
        </mxCell>
        <mxCell id="aPNfkUZCIj8OY--DICkq-277" value="" style="shape=partialRectangle;html=1;whiteSpace=wrap;connectable=0;overflow=hidden;fillColor=none;top=0;left=0;bottom=0;right=0;pointerEvents=1;fontSize=15;" vertex="1" parent="aPNfkUZCIj8OY--DICkq-265">
          <mxGeometry x="221" width="19" height="21" as="geometry">
            <mxRectangle width="19" height="21" as="alternateBounds" />
          </mxGeometry>
        </mxCell>
        <mxCell id="aPNfkUZCIj8OY--DICkq-278" value="" style="shape=partialRectangle;html=1;whiteSpace=wrap;connectable=0;overflow=hidden;fillColor=none;top=0;left=0;bottom=0;right=0;pointerEvents=1;fontSize=15;" vertex="1" parent="aPNfkUZCIj8OY--DICkq-265">
          <mxGeometry x="240" width="20" height="21" as="geometry">
            <mxRectangle width="20" height="21" as="alternateBounds" />
          </mxGeometry>
        </mxCell>
        <mxCell id="aPNfkUZCIj8OY--DICkq-279" value="" style="shape=partialRectangle;html=1;whiteSpace=wrap;connectable=0;overflow=hidden;fillColor=none;top=0;left=0;bottom=0;right=0;pointerEvents=1;fontSize=15;" vertex="1" parent="aPNfkUZCIj8OY--DICkq-265">
          <mxGeometry x="260" width="20" height="21" as="geometry">
            <mxRectangle width="20" height="21" as="alternateBounds" />
          </mxGeometry>
        </mxCell>
        <mxCell id="aPNfkUZCIj8OY--DICkq-280" value="" style="shape=partialRectangle;collapsible=0;dropTarget=0;pointerEvents=0;fillColor=none;top=0;left=0;bottom=0;right=0;points=[[0,0.5],[1,0.5]];portConstraint=eastwest;fontSize=15;" vertex="1" parent="aPNfkUZCIj8OY--DICkq-174">
          <mxGeometry y="147" width="280" height="21" as="geometry" />
        </mxCell>
        <mxCell id="aPNfkUZCIj8OY--DICkq-281" value="" style="shape=partialRectangle;html=1;whiteSpace=wrap;connectable=0;overflow=hidden;fillColor=none;top=0;left=0;bottom=0;right=0;pointerEvents=1;fontSize=15;" vertex="1" parent="aPNfkUZCIj8OY--DICkq-280">
          <mxGeometry width="20" height="21" as="geometry">
            <mxRectangle width="20" height="21" as="alternateBounds" />
          </mxGeometry>
        </mxCell>
        <mxCell id="aPNfkUZCIj8OY--DICkq-282" value="" style="shape=partialRectangle;html=1;whiteSpace=wrap;connectable=0;overflow=hidden;fillColor=none;top=0;left=0;bottom=0;right=0;pointerEvents=1;fontSize=15;" vertex="1" parent="aPNfkUZCIj8OY--DICkq-280">
          <mxGeometry x="20" width="20" height="21" as="geometry">
            <mxRectangle width="20" height="21" as="alternateBounds" />
          </mxGeometry>
        </mxCell>
        <mxCell id="aPNfkUZCIj8OY--DICkq-283" value="" style="shape=partialRectangle;html=1;whiteSpace=wrap;connectable=0;overflow=hidden;fillColor=none;top=0;left=0;bottom=0;right=0;pointerEvents=1;fontSize=15;" vertex="1" parent="aPNfkUZCIj8OY--DICkq-280">
          <mxGeometry x="40" width="19" height="21" as="geometry">
            <mxRectangle width="19" height="21" as="alternateBounds" />
          </mxGeometry>
        </mxCell>
        <mxCell id="aPNfkUZCIj8OY--DICkq-284" value="" style="shape=partialRectangle;html=1;whiteSpace=wrap;connectable=0;overflow=hidden;fillColor=none;top=0;left=0;bottom=0;right=0;pointerEvents=1;fontSize=15;" vertex="1" parent="aPNfkUZCIj8OY--DICkq-280">
          <mxGeometry x="59" width="22" height="21" as="geometry">
            <mxRectangle width="22" height="21" as="alternateBounds" />
          </mxGeometry>
        </mxCell>
        <mxCell id="aPNfkUZCIj8OY--DICkq-285" value="" style="shape=partialRectangle;html=1;whiteSpace=wrap;connectable=0;overflow=hidden;fillColor=none;top=0;left=0;bottom=0;right=0;pointerEvents=1;fontSize=15;" vertex="1" parent="aPNfkUZCIj8OY--DICkq-280">
          <mxGeometry x="81" width="19" height="21" as="geometry">
            <mxRectangle width="19" height="21" as="alternateBounds" />
          </mxGeometry>
        </mxCell>
        <mxCell id="aPNfkUZCIj8OY--DICkq-286" value="" style="shape=partialRectangle;html=1;whiteSpace=wrap;connectable=0;overflow=hidden;fillColor=none;top=0;left=0;bottom=0;right=0;pointerEvents=1;fontSize=15;" vertex="1" parent="aPNfkUZCIj8OY--DICkq-280">
          <mxGeometry x="100" width="20" height="21" as="geometry">
            <mxRectangle width="20" height="21" as="alternateBounds" />
          </mxGeometry>
        </mxCell>
        <mxCell id="aPNfkUZCIj8OY--DICkq-287" value="" style="shape=partialRectangle;html=1;whiteSpace=wrap;connectable=0;overflow=hidden;fillColor=none;top=0;left=0;bottom=0;right=0;pointerEvents=1;fontSize=15;" vertex="1" parent="aPNfkUZCIj8OY--DICkq-280">
          <mxGeometry x="120" width="20" height="21" as="geometry">
            <mxRectangle width="20" height="21" as="alternateBounds" />
          </mxGeometry>
        </mxCell>
        <mxCell id="aPNfkUZCIj8OY--DICkq-288" value="" style="shape=partialRectangle;html=1;whiteSpace=wrap;connectable=0;overflow=hidden;fillColor=none;top=0;left=0;bottom=0;right=0;pointerEvents=1;fontSize=15;" vertex="1" parent="aPNfkUZCIj8OY--DICkq-280">
          <mxGeometry x="140" width="20" height="21" as="geometry">
            <mxRectangle width="20" height="21" as="alternateBounds" />
          </mxGeometry>
        </mxCell>
        <mxCell id="aPNfkUZCIj8OY--DICkq-289" value="" style="shape=partialRectangle;html=1;whiteSpace=wrap;connectable=0;overflow=hidden;fillColor=none;top=0;left=0;bottom=0;right=0;pointerEvents=1;fontSize=15;" vertex="1" parent="aPNfkUZCIj8OY--DICkq-280">
          <mxGeometry x="160" width="20" height="21" as="geometry">
            <mxRectangle width="20" height="21" as="alternateBounds" />
          </mxGeometry>
        </mxCell>
        <mxCell id="aPNfkUZCIj8OY--DICkq-290" value="" style="shape=partialRectangle;html=1;whiteSpace=wrap;connectable=0;overflow=hidden;fillColor=none;top=0;left=0;bottom=0;right=0;pointerEvents=1;fontSize=15;" vertex="1" parent="aPNfkUZCIj8OY--DICkq-280">
          <mxGeometry x="180" width="19" height="21" as="geometry">
            <mxRectangle width="19" height="21" as="alternateBounds" />
          </mxGeometry>
        </mxCell>
        <mxCell id="aPNfkUZCIj8OY--DICkq-291" value="" style="shape=partialRectangle;html=1;whiteSpace=wrap;connectable=0;overflow=hidden;fillColor=none;top=0;left=0;bottom=0;right=0;pointerEvents=1;fontSize=15;" vertex="1" parent="aPNfkUZCIj8OY--DICkq-280">
          <mxGeometry x="199" width="22" height="21" as="geometry">
            <mxRectangle width="22" height="21" as="alternateBounds" />
          </mxGeometry>
        </mxCell>
        <mxCell id="aPNfkUZCIj8OY--DICkq-292" value="" style="shape=partialRectangle;html=1;whiteSpace=wrap;connectable=0;overflow=hidden;fillColor=none;top=0;left=0;bottom=0;right=0;pointerEvents=1;fontSize=15;" vertex="1" parent="aPNfkUZCIj8OY--DICkq-280">
          <mxGeometry x="221" width="19" height="21" as="geometry">
            <mxRectangle width="19" height="21" as="alternateBounds" />
          </mxGeometry>
        </mxCell>
        <mxCell id="aPNfkUZCIj8OY--DICkq-293" value="" style="shape=partialRectangle;html=1;whiteSpace=wrap;connectable=0;overflow=hidden;fillColor=none;top=0;left=0;bottom=0;right=0;pointerEvents=1;fontSize=15;" vertex="1" parent="aPNfkUZCIj8OY--DICkq-280">
          <mxGeometry x="240" width="20" height="21" as="geometry">
            <mxRectangle width="20" height="21" as="alternateBounds" />
          </mxGeometry>
        </mxCell>
        <mxCell id="aPNfkUZCIj8OY--DICkq-294" value="" style="shape=partialRectangle;html=1;whiteSpace=wrap;connectable=0;overflow=hidden;fillColor=none;top=0;left=0;bottom=0;right=0;pointerEvents=1;fontSize=15;" vertex="1" parent="aPNfkUZCIj8OY--DICkq-280">
          <mxGeometry x="260" width="20" height="21" as="geometry">
            <mxRectangle width="20" height="21" as="alternateBounds" />
          </mxGeometry>
        </mxCell>
        <mxCell id="aPNfkUZCIj8OY--DICkq-295" value="" style="shape=partialRectangle;collapsible=0;dropTarget=0;pointerEvents=0;fillColor=none;top=0;left=0;bottom=0;right=0;points=[[0,0.5],[1,0.5]];portConstraint=eastwest;fontSize=15;" vertex="1" parent="aPNfkUZCIj8OY--DICkq-174">
          <mxGeometry y="168" width="280" height="21" as="geometry" />
        </mxCell>
        <mxCell id="aPNfkUZCIj8OY--DICkq-296" value="" style="shape=partialRectangle;html=1;whiteSpace=wrap;connectable=0;overflow=hidden;fillColor=none;top=0;left=0;bottom=0;right=0;pointerEvents=1;fontSize=15;" vertex="1" parent="aPNfkUZCIj8OY--DICkq-295">
          <mxGeometry width="20" height="21" as="geometry">
            <mxRectangle width="20" height="21" as="alternateBounds" />
          </mxGeometry>
        </mxCell>
        <mxCell id="aPNfkUZCIj8OY--DICkq-297" value="" style="shape=partialRectangle;html=1;whiteSpace=wrap;connectable=0;overflow=hidden;fillColor=none;top=0;left=0;bottom=0;right=0;pointerEvents=1;fontSize=15;" vertex="1" parent="aPNfkUZCIj8OY--DICkq-295">
          <mxGeometry x="20" width="20" height="21" as="geometry">
            <mxRectangle width="20" height="21" as="alternateBounds" />
          </mxGeometry>
        </mxCell>
        <mxCell id="aPNfkUZCIj8OY--DICkq-298" value="" style="shape=partialRectangle;html=1;whiteSpace=wrap;connectable=0;overflow=hidden;fillColor=none;top=0;left=0;bottom=0;right=0;pointerEvents=1;fontSize=15;" vertex="1" parent="aPNfkUZCIj8OY--DICkq-295">
          <mxGeometry x="40" width="19" height="21" as="geometry">
            <mxRectangle width="19" height="21" as="alternateBounds" />
          </mxGeometry>
        </mxCell>
        <mxCell id="aPNfkUZCIj8OY--DICkq-299" value="" style="shape=partialRectangle;html=1;whiteSpace=wrap;connectable=0;overflow=hidden;fillColor=none;top=0;left=0;bottom=0;right=0;pointerEvents=1;fontSize=15;" vertex="1" parent="aPNfkUZCIj8OY--DICkq-295">
          <mxGeometry x="59" width="22" height="21" as="geometry">
            <mxRectangle width="22" height="21" as="alternateBounds" />
          </mxGeometry>
        </mxCell>
        <mxCell id="aPNfkUZCIj8OY--DICkq-300" value="" style="shape=partialRectangle;html=1;whiteSpace=wrap;connectable=0;overflow=hidden;fillColor=none;top=0;left=0;bottom=0;right=0;pointerEvents=1;fontSize=15;" vertex="1" parent="aPNfkUZCIj8OY--DICkq-295">
          <mxGeometry x="81" width="19" height="21" as="geometry">
            <mxRectangle width="19" height="21" as="alternateBounds" />
          </mxGeometry>
        </mxCell>
        <mxCell id="aPNfkUZCIj8OY--DICkq-301" value="" style="shape=partialRectangle;html=1;whiteSpace=wrap;connectable=0;overflow=hidden;fillColor=none;top=0;left=0;bottom=0;right=0;pointerEvents=1;fontSize=15;" vertex="1" parent="aPNfkUZCIj8OY--DICkq-295">
          <mxGeometry x="100" width="20" height="21" as="geometry">
            <mxRectangle width="20" height="21" as="alternateBounds" />
          </mxGeometry>
        </mxCell>
        <mxCell id="aPNfkUZCIj8OY--DICkq-302" value="" style="shape=partialRectangle;html=1;whiteSpace=wrap;connectable=0;overflow=hidden;fillColor=none;top=0;left=0;bottom=0;right=0;pointerEvents=1;fontSize=15;" vertex="1" parent="aPNfkUZCIj8OY--DICkq-295">
          <mxGeometry x="120" width="20" height="21" as="geometry">
            <mxRectangle width="20" height="21" as="alternateBounds" />
          </mxGeometry>
        </mxCell>
        <mxCell id="aPNfkUZCIj8OY--DICkq-303" value="" style="shape=partialRectangle;html=1;whiteSpace=wrap;connectable=0;overflow=hidden;fillColor=none;top=0;left=0;bottom=0;right=0;pointerEvents=1;fontSize=15;" vertex="1" parent="aPNfkUZCIj8OY--DICkq-295">
          <mxGeometry x="140" width="20" height="21" as="geometry">
            <mxRectangle width="20" height="21" as="alternateBounds" />
          </mxGeometry>
        </mxCell>
        <mxCell id="aPNfkUZCIj8OY--DICkq-304" value="" style="shape=partialRectangle;html=1;whiteSpace=wrap;connectable=0;overflow=hidden;fillColor=none;top=0;left=0;bottom=0;right=0;pointerEvents=1;fontSize=15;" vertex="1" parent="aPNfkUZCIj8OY--DICkq-295">
          <mxGeometry x="160" width="20" height="21" as="geometry">
            <mxRectangle width="20" height="21" as="alternateBounds" />
          </mxGeometry>
        </mxCell>
        <mxCell id="aPNfkUZCIj8OY--DICkq-305" value="" style="shape=partialRectangle;html=1;whiteSpace=wrap;connectable=0;overflow=hidden;fillColor=none;top=0;left=0;bottom=0;right=0;pointerEvents=1;fontSize=15;" vertex="1" parent="aPNfkUZCIj8OY--DICkq-295">
          <mxGeometry x="180" width="19" height="21" as="geometry">
            <mxRectangle width="19" height="21" as="alternateBounds" />
          </mxGeometry>
        </mxCell>
        <mxCell id="aPNfkUZCIj8OY--DICkq-306" value="" style="shape=partialRectangle;html=1;whiteSpace=wrap;connectable=0;overflow=hidden;fillColor=none;top=0;left=0;bottom=0;right=0;pointerEvents=1;fontSize=15;" vertex="1" parent="aPNfkUZCIj8OY--DICkq-295">
          <mxGeometry x="199" width="22" height="21" as="geometry">
            <mxRectangle width="22" height="21" as="alternateBounds" />
          </mxGeometry>
        </mxCell>
        <mxCell id="aPNfkUZCIj8OY--DICkq-307" value="" style="shape=partialRectangle;html=1;whiteSpace=wrap;connectable=0;overflow=hidden;fillColor=none;top=0;left=0;bottom=0;right=0;pointerEvents=1;fontSize=15;" vertex="1" parent="aPNfkUZCIj8OY--DICkq-295">
          <mxGeometry x="221" width="19" height="21" as="geometry">
            <mxRectangle width="19" height="21" as="alternateBounds" />
          </mxGeometry>
        </mxCell>
        <mxCell id="aPNfkUZCIj8OY--DICkq-308" value="" style="shape=partialRectangle;html=1;whiteSpace=wrap;connectable=0;overflow=hidden;fillColor=none;top=0;left=0;bottom=0;right=0;pointerEvents=1;fontSize=15;" vertex="1" parent="aPNfkUZCIj8OY--DICkq-295">
          <mxGeometry x="240" width="20" height="21" as="geometry">
            <mxRectangle width="20" height="21" as="alternateBounds" />
          </mxGeometry>
        </mxCell>
        <mxCell id="aPNfkUZCIj8OY--DICkq-309" value="" style="shape=partialRectangle;html=1;whiteSpace=wrap;connectable=0;overflow=hidden;fillColor=none;top=0;left=0;bottom=0;right=0;pointerEvents=1;fontSize=15;" vertex="1" parent="aPNfkUZCIj8OY--DICkq-295">
          <mxGeometry x="260" width="20" height="21" as="geometry">
            <mxRectangle width="20" height="21" as="alternateBounds" />
          </mxGeometry>
        </mxCell>
        <mxCell id="aPNfkUZCIj8OY--DICkq-310" value="" style="shape=partialRectangle;collapsible=0;dropTarget=0;pointerEvents=0;fillColor=none;top=0;left=0;bottom=0;right=0;points=[[0,0.5],[1,0.5]];portConstraint=eastwest;fontSize=15;" vertex="1" parent="aPNfkUZCIj8OY--DICkq-174">
          <mxGeometry y="189" width="280" height="20" as="geometry" />
        </mxCell>
        <mxCell id="aPNfkUZCIj8OY--DICkq-311" value="" style="shape=partialRectangle;html=1;whiteSpace=wrap;connectable=0;overflow=hidden;fillColor=none;top=0;left=0;bottom=0;right=0;pointerEvents=1;fontSize=15;" vertex="1" parent="aPNfkUZCIj8OY--DICkq-310">
          <mxGeometry width="20" height="20" as="geometry">
            <mxRectangle width="20" height="20" as="alternateBounds" />
          </mxGeometry>
        </mxCell>
        <mxCell id="aPNfkUZCIj8OY--DICkq-312" value="" style="shape=partialRectangle;html=1;whiteSpace=wrap;connectable=0;overflow=hidden;fillColor=none;top=0;left=0;bottom=0;right=0;pointerEvents=1;fontSize=15;" vertex="1" parent="aPNfkUZCIj8OY--DICkq-310">
          <mxGeometry x="20" width="20" height="20" as="geometry">
            <mxRectangle width="20" height="20" as="alternateBounds" />
          </mxGeometry>
        </mxCell>
        <mxCell id="aPNfkUZCIj8OY--DICkq-313" value="" style="shape=partialRectangle;html=1;whiteSpace=wrap;connectable=0;overflow=hidden;fillColor=none;top=0;left=0;bottom=0;right=0;pointerEvents=1;fontSize=15;" vertex="1" parent="aPNfkUZCIj8OY--DICkq-310">
          <mxGeometry x="40" width="19" height="20" as="geometry">
            <mxRectangle width="19" height="20" as="alternateBounds" />
          </mxGeometry>
        </mxCell>
        <mxCell id="aPNfkUZCIj8OY--DICkq-314" value="" style="shape=partialRectangle;html=1;whiteSpace=wrap;connectable=0;overflow=hidden;fillColor=none;top=0;left=0;bottom=0;right=0;pointerEvents=1;fontSize=15;" vertex="1" parent="aPNfkUZCIj8OY--DICkq-310">
          <mxGeometry x="59" width="22" height="20" as="geometry">
            <mxRectangle width="22" height="20" as="alternateBounds" />
          </mxGeometry>
        </mxCell>
        <mxCell id="aPNfkUZCIj8OY--DICkq-315" value="" style="shape=partialRectangle;html=1;whiteSpace=wrap;connectable=0;overflow=hidden;fillColor=none;top=0;left=0;bottom=0;right=0;pointerEvents=1;fontSize=15;" vertex="1" parent="aPNfkUZCIj8OY--DICkq-310">
          <mxGeometry x="81" width="19" height="20" as="geometry">
            <mxRectangle width="19" height="20" as="alternateBounds" />
          </mxGeometry>
        </mxCell>
        <mxCell id="aPNfkUZCIj8OY--DICkq-316" value="" style="shape=partialRectangle;html=1;whiteSpace=wrap;connectable=0;overflow=hidden;fillColor=none;top=0;left=0;bottom=0;right=0;pointerEvents=1;fontSize=15;" vertex="1" parent="aPNfkUZCIj8OY--DICkq-310">
          <mxGeometry x="100" width="20" height="20" as="geometry">
            <mxRectangle width="20" height="20" as="alternateBounds" />
          </mxGeometry>
        </mxCell>
        <mxCell id="aPNfkUZCIj8OY--DICkq-317" value="" style="shape=partialRectangle;html=1;whiteSpace=wrap;connectable=0;overflow=hidden;fillColor=none;top=0;left=0;bottom=0;right=0;pointerEvents=1;fontSize=15;" vertex="1" parent="aPNfkUZCIj8OY--DICkq-310">
          <mxGeometry x="120" width="20" height="20" as="geometry">
            <mxRectangle width="20" height="20" as="alternateBounds" />
          </mxGeometry>
        </mxCell>
        <mxCell id="aPNfkUZCIj8OY--DICkq-318" value="" style="shape=partialRectangle;html=1;whiteSpace=wrap;connectable=0;overflow=hidden;fillColor=none;top=0;left=0;bottom=0;right=0;pointerEvents=1;fontSize=15;" vertex="1" parent="aPNfkUZCIj8OY--DICkq-310">
          <mxGeometry x="140" width="20" height="20" as="geometry">
            <mxRectangle width="20" height="20" as="alternateBounds" />
          </mxGeometry>
        </mxCell>
        <mxCell id="aPNfkUZCIj8OY--DICkq-319" value="" style="shape=partialRectangle;html=1;whiteSpace=wrap;connectable=0;overflow=hidden;fillColor=none;top=0;left=0;bottom=0;right=0;pointerEvents=1;fontSize=15;" vertex="1" parent="aPNfkUZCIj8OY--DICkq-310">
          <mxGeometry x="160" width="20" height="20" as="geometry">
            <mxRectangle width="20" height="20" as="alternateBounds" />
          </mxGeometry>
        </mxCell>
        <mxCell id="aPNfkUZCIj8OY--DICkq-320" value="" style="shape=partialRectangle;html=1;whiteSpace=wrap;connectable=0;overflow=hidden;fillColor=none;top=0;left=0;bottom=0;right=0;pointerEvents=1;fontSize=15;" vertex="1" parent="aPNfkUZCIj8OY--DICkq-310">
          <mxGeometry x="180" width="19" height="20" as="geometry">
            <mxRectangle width="19" height="20" as="alternateBounds" />
          </mxGeometry>
        </mxCell>
        <mxCell id="aPNfkUZCIj8OY--DICkq-321" value="" style="shape=partialRectangle;html=1;whiteSpace=wrap;connectable=0;overflow=hidden;fillColor=none;top=0;left=0;bottom=0;right=0;pointerEvents=1;fontSize=15;" vertex="1" parent="aPNfkUZCIj8OY--DICkq-310">
          <mxGeometry x="199" width="22" height="20" as="geometry">
            <mxRectangle width="22" height="20" as="alternateBounds" />
          </mxGeometry>
        </mxCell>
        <mxCell id="aPNfkUZCIj8OY--DICkq-322" value="" style="shape=partialRectangle;html=1;whiteSpace=wrap;connectable=0;overflow=hidden;fillColor=none;top=0;left=0;bottom=0;right=0;pointerEvents=1;fontSize=15;" vertex="1" parent="aPNfkUZCIj8OY--DICkq-310">
          <mxGeometry x="221" width="19" height="20" as="geometry">
            <mxRectangle width="19" height="20" as="alternateBounds" />
          </mxGeometry>
        </mxCell>
        <mxCell id="aPNfkUZCIj8OY--DICkq-323" value="" style="shape=partialRectangle;html=1;whiteSpace=wrap;connectable=0;overflow=hidden;fillColor=none;top=0;left=0;bottom=0;right=0;pointerEvents=1;fontSize=15;" vertex="1" parent="aPNfkUZCIj8OY--DICkq-310">
          <mxGeometry x="240" width="20" height="20" as="geometry">
            <mxRectangle width="20" height="20" as="alternateBounds" />
          </mxGeometry>
        </mxCell>
        <mxCell id="aPNfkUZCIj8OY--DICkq-324" value="" style="shape=partialRectangle;html=1;whiteSpace=wrap;connectable=0;overflow=hidden;fillColor=none;top=0;left=0;bottom=0;right=0;pointerEvents=1;fontSize=15;" vertex="1" parent="aPNfkUZCIj8OY--DICkq-310">
          <mxGeometry x="260" width="20" height="20" as="geometry">
            <mxRectangle width="20" height="20" as="alternateBounds" />
          </mxGeometry>
        </mxCell>
        <mxCell id="aPNfkUZCIj8OY--DICkq-325" value="" style="shape=partialRectangle;collapsible=0;dropTarget=0;pointerEvents=0;fillColor=none;top=0;left=0;bottom=0;right=0;points=[[0,0.5],[1,0.5]];portConstraint=eastwest;fontSize=15;" vertex="1" parent="aPNfkUZCIj8OY--DICkq-174">
          <mxGeometry y="209" width="280" height="21" as="geometry" />
        </mxCell>
        <mxCell id="aPNfkUZCIj8OY--DICkq-326" value="" style="shape=partialRectangle;html=1;whiteSpace=wrap;connectable=0;overflow=hidden;fillColor=none;top=0;left=0;bottom=0;right=0;pointerEvents=1;fontSize=15;" vertex="1" parent="aPNfkUZCIj8OY--DICkq-325">
          <mxGeometry width="20" height="21" as="geometry">
            <mxRectangle width="20" height="21" as="alternateBounds" />
          </mxGeometry>
        </mxCell>
        <mxCell id="aPNfkUZCIj8OY--DICkq-327" value="" style="shape=partialRectangle;html=1;whiteSpace=wrap;connectable=0;overflow=hidden;fillColor=none;top=0;left=0;bottom=0;right=0;pointerEvents=1;fontSize=15;" vertex="1" parent="aPNfkUZCIj8OY--DICkq-325">
          <mxGeometry x="20" width="20" height="21" as="geometry">
            <mxRectangle width="20" height="21" as="alternateBounds" />
          </mxGeometry>
        </mxCell>
        <mxCell id="aPNfkUZCIj8OY--DICkq-328" value="" style="shape=partialRectangle;html=1;whiteSpace=wrap;connectable=0;overflow=hidden;fillColor=none;top=0;left=0;bottom=0;right=0;pointerEvents=1;fontSize=15;" vertex="1" parent="aPNfkUZCIj8OY--DICkq-325">
          <mxGeometry x="40" width="19" height="21" as="geometry">
            <mxRectangle width="19" height="21" as="alternateBounds" />
          </mxGeometry>
        </mxCell>
        <mxCell id="aPNfkUZCIj8OY--DICkq-329" value="" style="shape=partialRectangle;html=1;whiteSpace=wrap;connectable=0;overflow=hidden;fillColor=none;top=0;left=0;bottom=0;right=0;pointerEvents=1;fontSize=15;" vertex="1" parent="aPNfkUZCIj8OY--DICkq-325">
          <mxGeometry x="59" width="22" height="21" as="geometry">
            <mxRectangle width="22" height="21" as="alternateBounds" />
          </mxGeometry>
        </mxCell>
        <mxCell id="aPNfkUZCIj8OY--DICkq-330" value="" style="shape=partialRectangle;html=1;whiteSpace=wrap;connectable=0;overflow=hidden;fillColor=none;top=0;left=0;bottom=0;right=0;pointerEvents=1;fontSize=15;" vertex="1" parent="aPNfkUZCIj8OY--DICkq-325">
          <mxGeometry x="81" width="19" height="21" as="geometry">
            <mxRectangle width="19" height="21" as="alternateBounds" />
          </mxGeometry>
        </mxCell>
        <mxCell id="aPNfkUZCIj8OY--DICkq-331" value="" style="shape=partialRectangle;html=1;whiteSpace=wrap;connectable=0;overflow=hidden;fillColor=none;top=0;left=0;bottom=0;right=0;pointerEvents=1;fontSize=15;" vertex="1" parent="aPNfkUZCIj8OY--DICkq-325">
          <mxGeometry x="100" width="20" height="21" as="geometry">
            <mxRectangle width="20" height="21" as="alternateBounds" />
          </mxGeometry>
        </mxCell>
        <mxCell id="aPNfkUZCIj8OY--DICkq-332" value="" style="shape=partialRectangle;html=1;whiteSpace=wrap;connectable=0;overflow=hidden;fillColor=none;top=0;left=0;bottom=0;right=0;pointerEvents=1;fontSize=15;" vertex="1" parent="aPNfkUZCIj8OY--DICkq-325">
          <mxGeometry x="120" width="20" height="21" as="geometry">
            <mxRectangle width="20" height="21" as="alternateBounds" />
          </mxGeometry>
        </mxCell>
        <mxCell id="aPNfkUZCIj8OY--DICkq-333" value="" style="shape=partialRectangle;html=1;whiteSpace=wrap;connectable=0;overflow=hidden;fillColor=none;top=0;left=0;bottom=0;right=0;pointerEvents=1;fontSize=15;" vertex="1" parent="aPNfkUZCIj8OY--DICkq-325">
          <mxGeometry x="140" width="20" height="21" as="geometry">
            <mxRectangle width="20" height="21" as="alternateBounds" />
          </mxGeometry>
        </mxCell>
        <mxCell id="aPNfkUZCIj8OY--DICkq-334" value="" style="shape=partialRectangle;html=1;whiteSpace=wrap;connectable=0;overflow=hidden;fillColor=none;top=0;left=0;bottom=0;right=0;pointerEvents=1;fontSize=15;" vertex="1" parent="aPNfkUZCIj8OY--DICkq-325">
          <mxGeometry x="160" width="20" height="21" as="geometry">
            <mxRectangle width="20" height="21" as="alternateBounds" />
          </mxGeometry>
        </mxCell>
        <mxCell id="aPNfkUZCIj8OY--DICkq-335" value="" style="shape=partialRectangle;html=1;whiteSpace=wrap;connectable=0;overflow=hidden;fillColor=none;top=0;left=0;bottom=0;right=0;pointerEvents=1;fontSize=15;" vertex="1" parent="aPNfkUZCIj8OY--DICkq-325">
          <mxGeometry x="180" width="19" height="21" as="geometry">
            <mxRectangle width="19" height="21" as="alternateBounds" />
          </mxGeometry>
        </mxCell>
        <mxCell id="aPNfkUZCIj8OY--DICkq-336" value="" style="shape=partialRectangle;html=1;whiteSpace=wrap;connectable=0;overflow=hidden;fillColor=none;top=0;left=0;bottom=0;right=0;pointerEvents=1;fontSize=15;" vertex="1" parent="aPNfkUZCIj8OY--DICkq-325">
          <mxGeometry x="199" width="22" height="21" as="geometry">
            <mxRectangle width="22" height="21" as="alternateBounds" />
          </mxGeometry>
        </mxCell>
        <mxCell id="aPNfkUZCIj8OY--DICkq-337" value="" style="shape=partialRectangle;html=1;whiteSpace=wrap;connectable=0;overflow=hidden;fillColor=none;top=0;left=0;bottom=0;right=0;pointerEvents=1;fontSize=15;" vertex="1" parent="aPNfkUZCIj8OY--DICkq-325">
          <mxGeometry x="221" width="19" height="21" as="geometry">
            <mxRectangle width="19" height="21" as="alternateBounds" />
          </mxGeometry>
        </mxCell>
        <mxCell id="aPNfkUZCIj8OY--DICkq-338" value="" style="shape=partialRectangle;html=1;whiteSpace=wrap;connectable=0;overflow=hidden;fillColor=none;top=0;left=0;bottom=0;right=0;pointerEvents=1;fontSize=15;" vertex="1" parent="aPNfkUZCIj8OY--DICkq-325">
          <mxGeometry x="240" width="20" height="21" as="geometry">
            <mxRectangle width="20" height="21" as="alternateBounds" />
          </mxGeometry>
        </mxCell>
        <mxCell id="aPNfkUZCIj8OY--DICkq-339" value="" style="shape=partialRectangle;html=1;whiteSpace=wrap;connectable=0;overflow=hidden;fillColor=none;top=0;left=0;bottom=0;right=0;pointerEvents=1;fontSize=15;" vertex="1" parent="aPNfkUZCIj8OY--DICkq-325">
          <mxGeometry x="260" width="20" height="21" as="geometry">
            <mxRectangle width="20" height="21" as="alternateBounds" />
          </mxGeometry>
        </mxCell>
        <mxCell id="aPNfkUZCIj8OY--DICkq-340" value="" style="shape=table;startSize=0;container=1;collapsible=0;childLayout=tableLayout;fontSize=15;" vertex="1" parent="1">
          <mxGeometry x="360" y="119" width="20" height="190" as="geometry" />
        </mxCell>
        <mxCell id="aPNfkUZCIj8OY--DICkq-341" value="" style="shape=partialRectangle;collapsible=0;dropTarget=0;pointerEvents=0;fillColor=none;top=0;left=0;bottom=0;right=0;points=[[0,0.5],[1,0.5]];portConstraint=eastwest;fontSize=15;" vertex="1" parent="aPNfkUZCIj8OY--DICkq-340">
          <mxGeometry width="20" height="21" as="geometry" />
        </mxCell>
        <mxCell id="aPNfkUZCIj8OY--DICkq-342" value="" style="shape=partialRectangle;html=1;whiteSpace=wrap;connectable=0;overflow=hidden;fillColor=none;top=0;left=0;bottom=0;right=0;pointerEvents=1;fontSize=15;" vertex="1" parent="aPNfkUZCIj8OY--DICkq-341">
          <mxGeometry width="20" height="21" as="geometry">
            <mxRectangle width="20" height="21" as="alternateBounds" />
          </mxGeometry>
        </mxCell>
        <mxCell id="aPNfkUZCIj8OY--DICkq-343" value="" style="shape=partialRectangle;collapsible=0;dropTarget=0;pointerEvents=0;fillColor=none;top=0;left=0;bottom=0;right=0;points=[[0,0.5],[1,0.5]];portConstraint=eastwest;fontSize=15;" vertex="1" parent="aPNfkUZCIj8OY--DICkq-340">
          <mxGeometry y="21" width="20" height="20" as="geometry" />
        </mxCell>
        <mxCell id="aPNfkUZCIj8OY--DICkq-344" value="" style="shape=partialRectangle;html=1;whiteSpace=wrap;connectable=0;overflow=hidden;fillColor=none;top=0;left=0;bottom=0;right=0;pointerEvents=1;fontSize=15;" vertex="1" parent="aPNfkUZCIj8OY--DICkq-343">
          <mxGeometry width="20" height="20" as="geometry">
            <mxRectangle width="20" height="20" as="alternateBounds" />
          </mxGeometry>
        </mxCell>
        <mxCell id="aPNfkUZCIj8OY--DICkq-345" value="" style="shape=partialRectangle;collapsible=0;dropTarget=0;pointerEvents=0;fillColor=none;top=0;left=0;bottom=0;right=0;points=[[0,0.5],[1,0.5]];portConstraint=eastwest;fontSize=15;" vertex="1" parent="aPNfkUZCIj8OY--DICkq-340">
          <mxGeometry y="41" width="20" height="20" as="geometry" />
        </mxCell>
        <mxCell id="aPNfkUZCIj8OY--DICkq-346" value="" style="shape=partialRectangle;html=1;whiteSpace=wrap;connectable=0;overflow=hidden;fillColor=none;top=0;left=0;bottom=0;right=0;pointerEvents=1;fontSize=15;" vertex="1" parent="aPNfkUZCIj8OY--DICkq-345">
          <mxGeometry width="20" height="20" as="geometry">
            <mxRectangle width="20" height="20" as="alternateBounds" />
          </mxGeometry>
        </mxCell>
        <mxCell id="aPNfkUZCIj8OY--DICkq-347" value="" style="shape=partialRectangle;collapsible=0;dropTarget=0;pointerEvents=0;fillColor=none;top=0;left=0;bottom=0;right=0;points=[[0,0.5],[1,0.5]];portConstraint=eastwest;fontSize=15;" vertex="1" parent="aPNfkUZCIj8OY--DICkq-340">
          <mxGeometry y="61" width="20" height="21" as="geometry" />
        </mxCell>
        <mxCell id="aPNfkUZCIj8OY--DICkq-348" value="" style="shape=partialRectangle;html=1;whiteSpace=wrap;connectable=0;overflow=hidden;fillColor=none;top=0;left=0;bottom=0;right=0;pointerEvents=1;fontSize=15;" vertex="1" parent="aPNfkUZCIj8OY--DICkq-347">
          <mxGeometry width="20" height="21" as="geometry">
            <mxRectangle width="20" height="21" as="alternateBounds" />
          </mxGeometry>
        </mxCell>
        <mxCell id="aPNfkUZCIj8OY--DICkq-349" value="" style="shape=partialRectangle;collapsible=0;dropTarget=0;pointerEvents=0;fillColor=none;top=0;left=0;bottom=0;right=0;points=[[0,0.5],[1,0.5]];portConstraint=eastwest;fontSize=15;" vertex="1" parent="aPNfkUZCIj8OY--DICkq-340">
          <mxGeometry y="82" width="20" height="26" as="geometry" />
        </mxCell>
        <mxCell id="aPNfkUZCIj8OY--DICkq-350" value="" style="shape=partialRectangle;html=1;whiteSpace=wrap;connectable=0;overflow=hidden;fillColor=none;top=0;left=0;bottom=0;right=0;pointerEvents=1;fontSize=15;" vertex="1" parent="aPNfkUZCIj8OY--DICkq-349">
          <mxGeometry width="20" height="26" as="geometry">
            <mxRectangle width="20" height="26" as="alternateBounds" />
          </mxGeometry>
        </mxCell>
        <mxCell id="aPNfkUZCIj8OY--DICkq-351" value="" style="shape=partialRectangle;collapsible=0;dropTarget=0;pointerEvents=0;fillColor=none;top=0;left=0;bottom=0;right=0;points=[[0,0.5],[1,0.5]];portConstraint=eastwest;fontSize=15;" vertex="1" parent="aPNfkUZCIj8OY--DICkq-340">
          <mxGeometry y="108" width="20" height="21" as="geometry" />
        </mxCell>
        <mxCell id="aPNfkUZCIj8OY--DICkq-352" value="" style="shape=partialRectangle;html=1;whiteSpace=wrap;connectable=0;overflow=hidden;fillColor=none;top=0;left=0;bottom=0;right=0;pointerEvents=1;fontSize=15;" vertex="1" parent="aPNfkUZCIj8OY--DICkq-351">
          <mxGeometry width="20" height="21" as="geometry">
            <mxRectangle width="20" height="21" as="alternateBounds" />
          </mxGeometry>
        </mxCell>
        <mxCell id="aPNfkUZCIj8OY--DICkq-353" value="" style="shape=partialRectangle;collapsible=0;dropTarget=0;pointerEvents=0;fillColor=none;top=0;left=0;bottom=0;right=0;points=[[0,0.5],[1,0.5]];portConstraint=eastwest;fontSize=15;" vertex="1" parent="aPNfkUZCIj8OY--DICkq-340">
          <mxGeometry y="129" width="20" height="20" as="geometry" />
        </mxCell>
        <mxCell id="aPNfkUZCIj8OY--DICkq-354" value="" style="shape=partialRectangle;html=1;whiteSpace=wrap;connectable=0;overflow=hidden;fillColor=none;top=0;left=0;bottom=0;right=0;pointerEvents=1;fontSize=15;" vertex="1" parent="aPNfkUZCIj8OY--DICkq-353">
          <mxGeometry width="20" height="20" as="geometry">
            <mxRectangle width="20" height="20" as="alternateBounds" />
          </mxGeometry>
        </mxCell>
        <mxCell id="aPNfkUZCIj8OY--DICkq-355" value="" style="shape=partialRectangle;collapsible=0;dropTarget=0;pointerEvents=0;fillColor=none;top=0;left=0;bottom=0;right=0;points=[[0,0.5],[1,0.5]];portConstraint=eastwest;fontSize=15;" vertex="1" parent="aPNfkUZCIj8OY--DICkq-340">
          <mxGeometry y="149" width="20" height="20" as="geometry" />
        </mxCell>
        <mxCell id="aPNfkUZCIj8OY--DICkq-356" value="" style="shape=partialRectangle;html=1;whiteSpace=wrap;connectable=0;overflow=hidden;fillColor=none;top=0;left=0;bottom=0;right=0;pointerEvents=1;fontSize=15;" vertex="1" parent="aPNfkUZCIj8OY--DICkq-355">
          <mxGeometry width="20" height="20" as="geometry">
            <mxRectangle width="20" height="20" as="alternateBounds" />
          </mxGeometry>
        </mxCell>
        <mxCell id="aPNfkUZCIj8OY--DICkq-357" value="" style="shape=partialRectangle;collapsible=0;dropTarget=0;pointerEvents=0;fillColor=none;top=0;left=0;bottom=0;right=0;points=[[0,0.5],[1,0.5]];portConstraint=eastwest;fontSize=15;" vertex="1" parent="aPNfkUZCIj8OY--DICkq-340">
          <mxGeometry y="169" width="20" height="21" as="geometry" />
        </mxCell>
        <mxCell id="aPNfkUZCIj8OY--DICkq-358" value="" style="shape=partialRectangle;html=1;whiteSpace=wrap;connectable=0;overflow=hidden;fillColor=none;top=0;left=0;bottom=0;right=0;pointerEvents=1;fontSize=15;" vertex="1" parent="aPNfkUZCIj8OY--DICkq-357">
          <mxGeometry width="20" height="21" as="geometry">
            <mxRectangle width="20" height="21" as="alternateBounds" />
          </mxGeometry>
        </mxCell>
        <mxCell id="aPNfkUZCIj8OY--DICkq-362" value="copyFile" style="text;html=1;align=center;verticalAlign=middle;resizable=0;points=[];autosize=1;strokeColor=none;fillColor=none;fontSize=15;" vertex="1" parent="1">
          <mxGeometry x="-86" y="100" width="70" height="20" as="geometry" />
        </mxCell>
        <mxCell id="aPNfkUZCIj8OY--DICkq-365" value="（" style="text;html=1;align=center;verticalAlign=middle;resizable=0;points=[];autosize=1;strokeColor=none;fillColor=none;fontSize=15;" vertex="1" parent="1">
          <mxGeometry x="-45" y="123" width="30" height="20" as="geometry" />
        </mxCell>
        <mxCell id="aPNfkUZCIj8OY--DICkq-366" value="void" style="text;html=1;align=center;verticalAlign=middle;resizable=0;points=[];autosize=1;strokeColor=none;fillColor=none;fontSize=15;" vertex="1" parent="1">
          <mxGeometry x="-53" y="144" width="40" height="20" as="geometry" />
        </mxCell>
        <mxCell id="aPNfkUZCIj8OY--DICkq-367" value="*" style="text;html=1;align=center;verticalAlign=middle;resizable=0;points=[];autosize=1;strokeColor=none;fillColor=none;fontSize=15;" vertex="1" parent="1">
          <mxGeometry x="-33" y="168" width="20" height="20" as="geometry" />
        </mxCell>
        <mxCell id="aPNfkUZCIj8OY--DICkq-368" value="hoho_var" style="text;html=1;align=center;verticalAlign=middle;resizable=0;points=[];autosize=1;strokeColor=none;fillColor=none;fontSize=15;" vertex="1" parent="1">
          <mxGeometry x="-89" y="182.5" width="80" height="20" as="geometry" />
        </mxCell>
        <mxCell id="aPNfkUZCIj8OY--DICkq-369" value="," style="text;html=1;align=center;verticalAlign=middle;resizable=0;points=[];autosize=1;strokeColor=none;fillColor=none;fontSize=15;" vertex="1" parent="1">
          <mxGeometry x="-35" y="205" width="20" height="20" as="geometry" />
        </mxCell>
        <mxCell id="aPNfkUZCIj8OY--DICkq-370" value="char" style="text;html=1;align=center;verticalAlign=middle;resizable=0;points=[];autosize=1;strokeColor=none;fillColor=none;fontSize=15;" vertex="1" parent="1">
          <mxGeometry x="-55" y="226" width="40" height="20" as="geometry" />
        </mxCell>
        <mxCell id="aPNfkUZCIj8OY--DICkq-371" value="*" style="text;html=1;align=center;verticalAlign=middle;resizable=0;points=[];autosize=1;strokeColor=none;fillColor=none;fontSize=15;" vertex="1" parent="1">
          <mxGeometry x="-36" y="250" width="20" height="20" as="geometry" />
        </mxCell>
        <mxCell id="aPNfkUZCIj8OY--DICkq-372" value="hoho_var" style="text;html=1;align=center;verticalAlign=middle;resizable=0;points=[];autosize=1;strokeColor=none;fillColor=none;fontSize=15;" vertex="1" parent="1">
          <mxGeometry x="-90" y="269" width="80" height="20" as="geometry" />
        </mxCell>
        <mxCell id="aPNfkUZCIj8OY--DICkq-373" value=")" style="text;html=1;align=center;verticalAlign=middle;resizable=0;points=[];autosize=1;strokeColor=none;fillColor=none;fontSize=15;" vertex="1" parent="1">
          <mxGeometry x="-32" y="291" width="20" height="20" as="geometry" />
        </mxCell>
        <mxCell id="aPNfkUZCIj8OY--DICkq-374" value=";" style="text;html=1;align=center;verticalAlign=middle;resizable=0;points=[];autosize=1;strokeColor=none;fillColor=none;fontSize=15;" vertex="1" parent="1">
          <mxGeometry x="-33" y="309" width="20" height="20" as="geometry" />
        </mxCell>
        <mxCell id="aPNfkUZCIj8OY--DICkq-378" value="" style="rounded=0;whiteSpace=wrap;html=1;fontSize=15;strokeColor=#FF9933;fillColor=none;strokeWidth=2;" vertex="1" parent="1">
          <mxGeometry x="-10" y="144" width="280" height="58" as="geometry" />
        </mxCell>
        <mxCell id="aPNfkUZCIj8OY--DICkq-379" value="" style="endArrow=none;html=1;rounded=0;fontSize=15;exitX=1;exitY=1;exitDx=0;exitDy=0;entryX=-0.1;entryY=0.048;entryDx=0;entryDy=0;entryPerimeter=0;strokeColor=#FF9933;strokeWidth=2;" edge="1" parent="1" source="aPNfkUZCIj8OY--DICkq-378" target="aPNfkUZCIj8OY--DICkq-347">
          <mxGeometry width="50" height="50" relative="1" as="geometry">
            <mxPoint x="290" y="250" as="sourcePoint" />
            <mxPoint x="340" y="200" as="targetPoint" />
          </mxGeometry>
        </mxCell>
        <mxCell id="aPNfkUZCIj8OY--DICkq-380" value="" style="endArrow=none;html=1;rounded=0;fontSize=15;exitX=1;exitY=0;exitDx=0;exitDy=0;entryX=-0.05;entryY=-0.05;entryDx=0;entryDy=0;entryPerimeter=0;strokeWidth=2;strokeColor=#FF9933;" edge="1" parent="1" source="aPNfkUZCIj8OY--DICkq-378" target="aPNfkUZCIj8OY--DICkq-345">
          <mxGeometry width="50" height="50" relative="1" as="geometry">
            <mxPoint x="270" y="180" as="sourcePoint" />
            <mxPoint x="320" y="130" as="targetPoint" />
          </mxGeometry>
        </mxCell>
        <mxCell id="aPNfkUZCIj8OY--DICkq-381" value="" style="rounded=0;whiteSpace=wrap;html=1;fontSize=15;strokeColor=#FF9933;strokeWidth=2;fillColor=none;" vertex="1" parent="1">
          <mxGeometry x="360" y="160" width="20" height="20" as="geometry" />
        </mxCell>
        <mxCell id="aPNfkUZCIj8OY--DICkq-382" value="" style="endArrow=none;html=1;rounded=0;fontSize=15;strokeColor=#3399FF;strokeWidth=2;exitX=1.1;exitY=0.857;exitDx=0;exitDy=0;exitPerimeter=0;entryX=0;entryY=1;entryDx=0;entryDy=0;fillColor=#dae8fc;" edge="1" parent="1" source="aPNfkUZCIj8OY--DICkq-357" target="aPNfkUZCIj8OY--DICkq-385">
          <mxGeometry width="50" height="50" relative="1" as="geometry">
            <mxPoint x="420" y="310" as="sourcePoint" />
            <mxPoint x="475" y="220" as="targetPoint" />
          </mxGeometry>
        </mxCell>
        <mxCell id="aPNfkUZCIj8OY--DICkq-383" value="" style="endArrow=none;html=1;rounded=0;fontSize=15;strokeColor=#3399FF;strokeWidth=2;entryX=0;entryY=0;entryDx=0;entryDy=0;fillColor=#dae8fc;" edge="1" parent="1" target="aPNfkUZCIj8OY--DICkq-385">
          <mxGeometry width="50" height="50" relative="1" as="geometry">
            <mxPoint x="380" y="120" as="sourcePoint" />
            <mxPoint x="484" y="176.79999999999995" as="targetPoint" />
          </mxGeometry>
        </mxCell>
        <mxCell id="aPNfkUZCIj8OY--DICkq-385" value="" style="rounded=0;whiteSpace=wrap;html=1;fontSize=15;strokeColor=#3399FF;strokeWidth=2;fillColor=none;" vertex="1" parent="1">
          <mxGeometry x="490" y="200" width="20" height="22" as="geometry" />
        </mxCell>
        <mxCell id="aPNfkUZCIj8OY--DICkq-389" value="max-pooling" style="text;html=1;align=center;verticalAlign=middle;resizable=0;points=[];autosize=1;strokeColor=none;fillColor=none;fontSize=13;fontColor=#3399FF;" vertex="1" parent="1">
          <mxGeometry x="420" y="269" width="90" height="20" as="geometry" />
        </mxCell>
        <mxCell id="aPNfkUZCIj8OY--DICkq-390" value="convolution&lt;br&gt;" style="text;html=1;align=center;verticalAlign=middle;resizable=0;points=[];autosize=1;strokeColor=none;fillColor=none;fontSize=13;fontColor=#FF9933;" vertex="1" parent="1">
          <mxGeometry x="270" y="206" width="80" height="20" as="geometry" />
        </mxCell>
      </root>
    </mxGraphModel>
  </diagram>
</mxfile>
